<svg id="Capa_1" data-name="Capa 1" xmlns="http://www.w3.org/2000/svg" viewBox="0 0 201.35 60.58"><defs><style>.cls-1{fill:#303031;}.cls-2{fill:#4a494a;}.cls-3{font-size:6.62px;fill:#2b2b2b;font-family:MyriadPro-Regular, Myriad Pro;}</style></defs><path class="cls-1" d="M30.69,79.55a8.15,8.15,0,1,1-8.15-8.16A8.15,8.15,0,0,1,30.69,79.55Z" transform="translate(-1 -71.39)"/><path class="cls-1" d="M17.31,92.8a8.16,8.16,0,1,1-8.16-8.16A8.15,8.15,0,0,1,17.31,92.8Z" transform="translate(-1 -71.39)"/><path class="cls-2" d="M4.79,99.68a17.57,17.57,0,0,1,4.4-6.34,23.49,23.49,0,0,1,7-4.73A8.15,8.15,0,1,0,4.79,99.68Z" transform="translate(-1 -71.39)"/><path class="cls-1" d="M44.08,92.8a8.16,8.16,0,1,1-8.16-8.16A8.15,8.15,0,0,1,44.08,92.8Z" transform="translate(-1 -71.39)"/><path class="cls-1" d="M30.69,106.18A8.15,8.15,0,1,1,22.54,98,8.15,8.15,0,0,1,30.69,106.18Z" transform="translate(-1 -71.39)"/><path class="cls-1" d="M65.19,108.77H53.58V81.11H64.76c3,0,5.32.69,6.86,2.07a7,7,0,0,1,2.3,5.45,6.61,6.61,0,0,1-1.08,3.78,6.4,6.4,0,0,1-2.94,2.37,6.6,6.6,0,0,1,3.28,2.36,6.4,6.4,0,0,1,1.2,3.87A7.12,7.12,0,0,1,72,106.72C70.42,108.08,68.15,108.77,65.19,108.77ZM64.8,85.4H58.22v7.2H64.8q4.36,0,4.36-3.58a3.36,3.36,0,0,0-1.09-2.67A4.85,4.85,0,0,0,64.8,85.4Zm.35,11.53H58.22v7.55h6.89q4.52,0,4.52-3.78a3.45,3.45,0,0,0-1.17-2.78A5,5,0,0,0,65.15,96.93Z" transform="translate(-1 -71.39)"/><path class="cls-1" d="M97.36,100H82a6.05,6.05,0,0,0,1.75,3.84,5.37,5.37,0,0,0,3.89,1.42,5.47,5.47,0,0,0,2.89-.78,4.43,4.43,0,0,0,1.83-2.1H97a9.36,9.36,0,0,1-3.49,5,9.81,9.81,0,0,1-6,1.89,9.49,9.49,0,0,1-7.3-3,11.61,11.61,0,0,1,0-15.11,9.44,9.44,0,0,1,7.25-3,9.32,9.32,0,0,1,7.18,3,10.66,10.66,0,0,1,2.75,7.5Zm-9.89-8.14a5.21,5.21,0,0,0-3.62,1.29,5.68,5.68,0,0,0-1.8,3.42H92.8a5.48,5.48,0,0,0-1.71-3.42A5.13,5.13,0,0,0,87.47,91.86Z" transform="translate(-1 -71.39)"/><path class="cls-1" d="M105.89,108.77h-4.63V79.56h4.63Z" transform="translate(-1 -71.39)"/><path class="cls-1" d="M115.74,108.77h-4.63V79.56h4.63Z" transform="translate(-1 -71.39)"/><path class="cls-1" d="M135.8,88.59h4.29v20.18H135.8v-2.89c-1.38,2.24-3.65,3.35-6.81,3.35a8.39,8.39,0,0,1-6.84-3,12.57,12.57,0,0,1,0-15.07,8.42,8.42,0,0,1,6.84-3q4.74,0,6.81,3.35Zm-10,5.47a7.61,7.61,0,0,0,0,9.23,5.58,5.58,0,0,0,8.28,0,7.75,7.75,0,0,0,0-9.27,5.58,5.58,0,0,0-8.28,0Z" transform="translate(-1 -71.39)"/><path class="cls-1" d="M156.21,88.4v4.32a7.77,7.77,0,0,0-1.05-.08q-5.22,0-5.22,5.61v10.52H145.3V88.55h4.29v2.81q1.71-3,6-3Z" transform="translate(-1 -71.39)"/><path class="cls-1" d="M172.8,91.2V79.56h4.64v29.21h-4.29v-2.89c-1.38,2.24-3.65,3.35-6.81,3.35a8.41,8.41,0,0,1-6.84-3A11.39,11.39,0,0,1,157,98.68a11.51,11.51,0,0,1,2.51-7.56,8.42,8.42,0,0,1,6.84-3Q170.74,88.08,172.8,91.2Zm.2,7.48A7.05,7.05,0,0,0,171.46,94a5.6,5.6,0,0,0-8.28,0,7.7,7.7,0,0,0,0,9.29,5.58,5.58,0,0,0,8.28,0A7,7,0,0,0,173,98.68Z" transform="translate(-1 -71.39)"/><path class="cls-1" d="M185,85.16a2.83,2.83,0,0,1-2.1-.8,2.7,2.7,0,0,1-.82-2A2.81,2.81,0,0,1,185,79.4a2.77,2.77,0,0,1,2.06.82,2.81,2.81,0,0,1,.82,2.1,2.7,2.7,0,0,1-.82,2A2.79,2.79,0,0,1,185,85.16Zm-2.34,23.61V88.55h4.64v20.22Z" transform="translate(-1 -71.39)"/><path class="cls-1" d="M198.26,109.06a3.4,3.4,0,0,1-2.55,1,3.36,3.36,0,0,1-2.54-1,3.68,3.68,0,0,1,0-5,3.69,3.69,0,0,1,5.09,0,3.69,3.69,0,0,1,0,5Zm-4.59-.44a3,3,0,0,0,4.09,0,3.16,3.16,0,0,0,0-4.16,3,3,0,0,0-4.09,0,3.19,3.19,0,0,0,0,4.16Zm3.59-.34h-.78l-.53-1.1-.23,0h-.59v1.08h-.67v-3.47h1.3a1.54,1.54,0,0,1,1.07.33,1.07,1.07,0,0,1,.37.87,1,1,0,0,1-.61,1Zm-1.41-2.84h-.72v1.12h.72c.45,0,.67-.19.67-.55S196.3,105.44,195.85,105.44Z" transform="translate(-1 -71.39)"/><path class="cls-1" d="M57.76,121v.72H55.31v1.38h2.21v.72H55.31v2h-.82V121Z" transform="translate(-1 -71.39)"/><path class="cls-1" d="M63.5,124.73H61.05l-.47,1.08h-.86L61.87,121h.85l2.13,4.78H64Zm-.31-.72-.92-2.12L61.35,124Z" transform="translate(-1 -71.39)"/><path class="cls-1" d="M70.65,125.81l-.89-1.45H68.38v1.44h-.82V121h2c1.25,0,2,.59,2,1.63a1.52,1.52,0,0,1-1,1.55l1.09,1.6Zm-1.12-2.16c.76,0,1.19-.32,1.19-1s-.43-.93-1.19-.93H68.38v1.9Z" transform="translate(-1 -71.39)"/><path class="cls-1" d="M75.63,121l1.61,3.17,1.6-3.17h1v4.78h-.75v-3.57l-1.54,3.07H77l-1.53-3.07v3.57h-.78V121Z" transform="translate(-1 -71.39)"/><path class="cls-1" d="M86.3,124.73H83.84l-.46,1.08h-.86L84.67,121h.85l2.13,4.78h-.88ZM86,124l-.92-2.12L84.15,124Z" transform="translate(-1 -71.39)"/><path class="cls-1" d="M92.4,121.73a1.68,1.68,0,1,0,0,3.36,2,2,0,0,0,1.36-.57l.49.54a2.8,2.8,0,0,1-1.89.78,2.42,2.42,0,1,1,0-4.83,2.7,2.7,0,0,1,1.85.74l-.48.58A1.94,1.94,0,0,0,92.4,121.73Z" transform="translate(-1 -71.39)"/><path class="cls-1" d="M98,121v4.78h-.83V121Z" transform="translate(-1 -71.39)"/><path class="cls-1" d="M104.46,124.73H102l-.47,1.08h-.85l2.15-4.78h.84l2.13,4.78h-.88Zm-.32-.72-.92-2.12L102.3,124Z" transform="translate(-1 -71.39)"/><path class="cls-1" d="M119,125.94l-.71-.73a1.94,1.94,0,0,1-1.37.63,1.35,1.35,0,0,1-1.43-1.34,1.54,1.54,0,0,1,1-1.32,1.88,1.88,0,0,1-.43-1.1,1.07,1.07,0,0,1,1.18-1.08,1,1,0,0,1,1.15,1c0,.65-.55,1-1.11,1.3.25.3.57.64,1,1a4.6,4.6,0,0,0,.41-.86l.48.38a4.32,4.32,0,0,1-.47.91l.74.76Zm-1.12-1.16c-.45-.47-.82-.86-1.1-1.2-.38.22-.67.47-.67.86a.8.8,0,0,0,.84.81A1.31,1.31,0,0,0,117.9,124.78Zm-.91-1.87c.44-.23.81-.48.81-.9a.5.5,0,0,0-.56-.52.56.56,0,0,0-.59.58A1.48,1.48,0,0,0,117,122.91Z" transform="translate(-1 -71.39)"/><path class="cls-1" d="M127.36,122.66c0,1.08-.71,1.71-1.93,1.71h-1.12v1.44h-.82V121h1.94C126.65,121,127.36,121.62,127.36,122.66Zm-.79,0c0-.63-.42-.93-1.18-.93h-1.08v1.9h1.08C126.15,123.65,126.57,123.33,126.57,122.68Z" transform="translate(-1 -71.39)"/><path class="cls-1" d="M133.72,121v.72h-2.66v1.3h2.38v.72h-2.38v1.31h2.74v.73h-3.57V121Z" transform="translate(-1 -71.39)"/><path class="cls-1" d="M140,125.81l-.89-1.45h-1.37v1.44h-.83V121h2c1.25,0,2,.59,2,1.63a1.52,1.52,0,0,1-1,1.55l1.1,1.6Zm-1.11-2.16c.75,0,1.18-.32,1.18-1s-.43-.93-1.18-.93h-1.15v1.9Z" transform="translate(-1 -71.39)"/><path class="cls-1" d="M147.23,121v.72h-2.44v1.38H147v.72h-2.21v2H144V121Z" transform="translate(-1 -71.39)"/><path class="cls-1" d="M152.06,125.12a1.19,1.19,0,0,0,1.29-1.29V121h.82v2.8a2.12,2.12,0,0,1-4.24,0V121h.82v2.8A1.21,1.21,0,0,0,152.06,125.12Z" transform="translate(-1 -71.39)"/><path class="cls-1" d="M158.38,121,160,124.2l1.6-3.17h1v4.78h-.76v-3.57l-1.54,3.07h-.53l-1.54-3.07v3.57h-.77V121Z" transform="translate(-1 -71.39)"/><path class="cls-1" d="M169.39,121v.72h-2.66v1.3h2.38v.72h-2.38v1.31h2.74v.73h-3.56V121Z" transform="translate(-1 -71.39)"/><path class="cls-1" d="M175.63,125.81l-.89-1.45h-1.38v1.44h-.82V121h2c1.25,0,2,.59,2,1.63a1.52,1.52,0,0,1-1,1.55l1.09,1.6Zm-1.12-2.16c.76,0,1.19-.32,1.19-1s-.43-.93-1.19-.93h-1.15v1.9Z" transform="translate(-1 -71.39)"/><path class="cls-1" d="M181.14,119.84l-.85.67h-.71l.73-1Zm-.69,1.19v4.78h-.82V121Z" transform="translate(-1 -71.39)"/><path class="cls-1" d="M186.94,124.73h-2.45l-.47,1.08h-.86l2.15-4.78h.85l2.13,4.78h-.88Zm-.31-.72-.92-2.12-.92,2.12Z" transform="translate(-1 -71.39)"/><text class="cls-3" transform="translate(106.51 54.22) scale(1.19 1)">S</text><text class="cls-3" transform="translate(188.82 54.22) scale(1.19 1)">S</text></svg>