<svg id="Capa_3" data-name="Capa 3" xmlns="http://www.w3.org/2000/svg" xmlns:xlink="http://www.w3.org/1999/xlink" viewBox="0 0 142.01 93.76"><defs><style>.cls-1{fill:url(#Degradado_sin_nombre_29);}</style><linearGradient id="Degradado_sin_nombre_29" x1="29" y1="96.93" x2="171" y2="96.93" gradientUnits="userSpaceOnUse"><stop offset="0" stop-color="#303032"/><stop offset="1" stop-color="#141414"/></linearGradient></defs><g id="Capa_1" data-name="Capa 1"><path class="cls-1" d="M167.32,129c-.72,0-1.44,0-2.15-.09a7.3,7.3,0,0,1-1.84-.52,3.44,3.44,0,0,1-2.15-3.26c-.07-1.4-.15-2.79-.23-4.25-.82,0-1.59,0-2.36,0-6.61-.07-13.23-.08-19.84-.21a10,10,0,0,1-8-4.24,31.48,31.48,0,0,1-2.2-3.73,4.48,4.48,0,0,1-.23-.51l-.48.66a26.27,26.27,0,0,1-13.34,9.82,27.2,27.2,0,0,1-17.42-.13,36.93,36.93,0,0,1-4.21-2,1.44,1.44,0,0,0-2.1.63,4.84,4.84,0,0,0-.38,1.8c-.06,5.72-.08,11.43-.12,17.15a1.51,1.51,0,0,1-.18.69,5.68,5.68,0,0,1-5,3A5.85,5.85,0,0,1,79.64,141a1.52,1.52,0,0,1-.21-.78q.09-14.94.19-29.89a2.29,2.29,0,0,0-.11-.87c-.09.17-.19.33-.28.49a26.82,26.82,0,0,1-34.35,11.35,26.53,26.53,0,0,0-4.9-1.49,5.61,5.61,0,0,1-3.39,3.33,6.17,6.17,0,0,1-7.23-2.21,2.21,2.21,0,0,1-.36-1.19c0-7.17.08-14.34.13-21.51l.18-26.94c0-5.88.07-11.77.13-17.66a2,2,0,0,1,.3-1,5.65,5.65,0,0,1,4.58-2.54,7.33,7.33,0,0,1,3.22.36,4.4,4.4,0,0,1,2.27,1.73,2.88,2.88,0,0,1,.5,1.7c-.06,6.09-.08,12.19-.13,18.29a.65.65,0,0,0,.43.73,6.92,6.92,0,0,0,1.61.3,6.84,6.84,0,0,0,3-.84A34.16,34.16,0,0,1,48.7,71a21.12,21.12,0,0,1,2.75-.5,26.84,26.84,0,0,1,28,13.79l.15.27.16.24c0-.94,0-1.77,0-2.6,0-2.74,0-5.49.07-8.23a2.43,2.43,0,0,1,.46-1.28,5.87,5.87,0,0,1,5-2.34,6.3,6.3,0,0,1,3.58.82,3.75,3.75,0,0,1,1.89,2.6c.07.44.43.51.75.43a11.85,11.85,0,0,0,2.21-.7c8.57-4.18,17.1-4.14,25.46.43A26.64,26.64,0,0,1,132.8,95.6c0,.17,0,.34.07.66.22-.32.37-.53.51-.75L140,85.35c2.44-3.77,4.84-7.58,7.35-11.31A13.15,13.15,0,0,1,153,69.45c4.56-2,8.94-1.4,13.12,1.12a10.49,10.49,0,0,1,4.35,4.73c.1.22.21.43.31.65l.27,1.32c0,1.55,0,3.1-.05,4.65l-.15,22.22q-.08,10.71-.16,21.44a3.08,3.08,0,0,1-1.82,2.91c-.25.13-.52.24-.78.36ZM93.14,100.86c.11.38.25.92.42,1.45a12.61,12.61,0,0,0,11.14,9.09,13.49,13.49,0,0,0,10.1-2.66,13.21,13.21,0,0,0,4.71-7.79,15.09,15.09,0,0,0-1.64-11.21c-2.54-4.3-6.48-6.24-11.37-6.28-5.16,0-9.24,2-11.81,6.6A15.61,15.61,0,0,0,93.14,100.86Zm-50.29-.52c.21.7.37,1.4.61,2.06a12.57,12.57,0,0,0,5.91,7.13,14,14,0,0,0,8.39,1.53A12.24,12.24,0,0,0,68,104.12a15.24,15.24,0,0,0,.92-11.78,12.49,12.49,0,0,0-6.74-8,14.36,14.36,0,0,0-7.37-1.23,12.28,12.28,0,0,0-8.66,4.15C42.87,91.08,42.09,95.53,42.85,100.34Zm118.47,11c0-.22,0-.39,0-.55q.09-14.61.2-29.21a1.88,1.88,0,0,0-1.09-1.85,3.12,3.12,0,0,0-4.33,1c-2.82,4.13-5.67,8.24-8.48,12.36q-3.84,5.61-7.62,11.25a27.14,27.14,0,0,0-1.7,2.9,3,3,0,0,0-.22,2.22,3.11,3.11,0,0,0,2.83,1.93h16.89Z" transform="translate(-29 -50.05)"/></g></svg>