<svg id="Capa_4" data-name="Capa 4" xmlns="http://www.w3.org/2000/svg" viewBox="0 0 178.25 58.37"><defs><style>.cls-1{fill:#313133;}</style></defs><g id="g3"><path id="path5" class="cls-1" d="M78.63,119.22c-6.64-4.27-15.64-5-30.16-1-15.47,3.63-20.63,6-27.41,1.29-2.6-2.3-3.54-6-2.84-11.34,1.62-8.69,6-17.05,13.75-26.33,4.33-4.83,8.34-9,13.65-10.64,4.07-1,3.69,2.16,3.19,2.61a3.92,3.92,0,0,0-2.06.53A5.31,5.31,0,0,0,44.62,78c-.12,2.82,2.8,2.24,4.06.69C50,76.92,52,73.58,50.47,70.46a4.66,4.66,0,0,0-3.23-2.13c-4.85-.28-9.38,2-13.55,4.6A59.2,59.2,0,0,0,13.12,97.68c-2.39,5.81-4.54,14.12-1.31,20.89,2.5,4.7,7.69,7.19,13.88,6.67a109.54,109.54,0,0,0,13.12-2.71c3.53-.85,21.6-7.06,27.54,3.75a8,8,0,0,1,6.91-3.91c4-.38,9.91,1.17,14.17,4.3-1.42-2.13-5.45-5.28-8.8-7.45Z" transform="translate(-10.17 -68.31)"/><path id="path7" class="cls-1" d="M50.32,82.94c-3.38-2.22-10.18,2-15.62,9.29-5,6.53-7.12,14.11-4.78,17.62,3.47,4.12,9.93-1.88,12.68-5.09l.35-.38a40.07,40.07,0,0,0,4.71-6.73L49,95.43c.8-.15,1.75-.37,2.83-.68,0,0-4.12,6.94-3.7,10.37.13,1,0,4.86,3.75,6,5,.84,8.93-3,12.43-6.44l.93-.89-.19.79c-1.46,5.06.5,6.12,1.73,6.51,3.7,1.08,8.13-4.3,8.14-4.3-.11,1.69-.45,3.09,1.34,4.22,1.69.6,3.39-.32,4.69-1.18,4.67-3.3,8.44-8.45,11.48-12.91H90.49s-4.79,6.91-7.88,8.41c0,0-.57.29-.89.06s-.24-1.06,0-1.56l12-20.72H88l-.67,1.06s-.13-.21-.19-.29c-3.49-4.82-11.39,2.6-17.34,11.21a56.7,56.7,0,0,1-8.23,9.73s-4.48,4.1-6.39,1.15a5.66,5.66,0,0,1-.09-4.24c2.22-6.34,6.06-12.1,10.43-15.57,1.24-1,2.58-1.24,3.24-.83a1.41,1.41,0,0,1,.34,1.94,3.15,3.15,0,0,0-2.5,1c-1.3,1.37-1.76,2.69-1.34,3.93,2,2.87,6-2.81,5.84-6.26a3.73,3.73,0,0,0-1.71-3,5.94,5.94,0,0,0-5.17,0c-2,.74-5,3.3-6.82,5.29-2.26,2.49-6.14,5.26-7.35,4.95.4-1.06,3.67-7.76.23-10.27Zm27.15,9.91c1.1-1.51,4.28-5.57,5.06-6.26,2.62-2.3,3.66-1.29,3.75-.57-2.44,4.37-5.32,9.38-8,13.88l-.84,1.29A12.5,12.5,0,0,1,73,105.67a1.27,1.27,0,0,1-1.05-.11,1.13,1.13,0,0,1-.47-1.08c.12-1.4,1.54-5.69,6-11.63ZM46.83,95.48s0,.15-.07.19-2.46,4-2.46,4c-1.48,2-3.32,4.45-5.63,5.64-.68.23-1.63.38-2.11-.23-1-1.22-.49-2.91-.07-4.28l.15-.49a40.76,40.76,0,0,1,5.07-9,.19.19,0,0,1,.09,0s0,0,0,0a8.15,8.15,0,0,0,5.08,3.83s0,0,0,0a.69.69,0,0,1-.09.26Zm2.32-4.71-1.09,2.51c-.16.13-.4.06-.69,0l-.48-.08a4.41,4.41,0,0,1-3-2.69c-.48-2.35,1.52-4.2,2.41-4.86a2.67,2.67,0,0,1,2.93-.3,3.1,3.1,0,0,1,.65,2.06,11.21,11.21,0,0,1-.7,3.36Z" transform="translate(-10.17 -68.31)"/><path id="path9" class="cls-1" d="M120.35,98.33a3.32,3.32,0,0,0-3.21-1.84c-4.46.41-8.82,4.08-11.11,9.34a26.89,26.89,0,0,0-2.29,8.5,23.6,23.6,0,0,1,7.43-5.66,15.36,15.36,0,0,1,2.66-6.44c.85-1.26,2.53-3.28,4.43-2.74,1.65.56,1.07,5.14-1.13,9.57a30.86,30.86,0,0,1-6.64,8.78c-2.23,1.89-5.52,4.17-8.41,2.41-1.82-1.08-2.74-3.33-2.55-6.23.87-8.23,4.62-15.25,10-23.24,5.54-7.42,11.63-15,19.85-19.09a5.48,5.48,0,0,1,4.56-.52s-7.71,4.24-11.38,12.08c-.94,2-2.24,4.68-.93,7.06a2.75,2.75,0,0,0,2.88,1.27c4.51-1,7.42-5.25,9.79-9.1,1.38-2.92,2.61-5.82,2.61-9,0-.39,0-.91,0-1.3C139,71,143.4,73,143.4,73c3.45,1.14,10.79,6.77,13.27,7.84,1.21-1.4,3.2-3.52,4.31-4.58l-1.61-1c-2.6-1.59-5.34-3.09-8-4.57a16.07,16.07,0,0,0-13.64-1.26l-1.91.67c-1.88-2.05-5-1.86-7.25-1.3-8.18,2.35-15.77,8.07-23.92,18-6,7.78-9.7,14.5-11.67,21.13-1.53,4.47-2,11,1.73,14.94,3.17,3.31,7.36,2.59,10.33,1.4,6.42-3.16,12.19-10,15.07-17.82.7-2.33,1.47-5.63.27-8.14Zm14.77-24.57c-.85,9.75-8.43,15.47-10.31,15.93-1.13.23-3.07-.28-1.34-4.37A27.24,27.24,0,0,1,135,72.73a2.46,2.46,0,0,1,.08,1Z" transform="translate(-10.17 -68.31)"/><path id="path11" class="cls-1" d="M180.08,75c-4.07,2.31-8.3,3.81-13.42,3.29-1.41,1.6-2.79,3.25-4.07,4.94,7.18,1.83,14.8-2.23,19-6.1a30,30,0,0,0,6.8-8.8A35.69,35.69,0,0,1,180.08,75Z" transform="translate(-10.17 -68.31)"/><polygon id="polygon13" class="cls-1" points="89.84 19.71 92.86 14.81 87.51 14.81 84.49 19.71 89.84 19.71"/><path id="path15" class="cls-1" d="M166.64,119.68c-.57.39-1.38.09-1.08-.81a46.54,46.54,0,0,1,3.75-6.94l8.33-14.77h-5.71c-.27.44-.85,1.46-.85,1.46A7.48,7.48,0,0,0,169.7,97c-1.39-.89-3.44-.47-4.85.33-6.14,3.59-10.61,10.68-14.15,16.21,0,0-3.71,6.14-5.78,6.6-1.61.13-1.44-2-1.37-2.55a41.25,41.25,0,0,1,3.53-10.27,80.46,80.46,0,0,0,9.42-7.7c6.67-6.37,12.29-13.6,13.11-15.21a12.81,12.81,0,0,1-1.94.21c-5.13,7.16-15.63,17.56-18.82,19.11,1.42-3.39,10.53-19.58,18.28-27.33l1.22-1.17c1.89-1.85,3.84-3.74,5.37-4,.16,0,.37,0,.55.38a7.16,7.16,0,0,1-1.08,3.7L172.33,77a20.53,20.53,0,0,0,2-.49c.93-1.74,2-3.7,1.58-6a1.73,1.73,0,0,0-1.38-1.45c-2.31-.44-4.84,1.27-6.86,2.65l-.09,0c-10.42,8.17-19.23,20-26.93,36a5.58,5.58,0,0,1-3.08.68,26.34,26.34,0,0,0,2.2-5.95,16.35,16.35,0,0,0,.16-2,4.14,4.14,0,0,0-1.6-3.63,5.49,5.49,0,0,0-4.52.16c-5.5,2.28-9.62,7.93-12.58,12.57a27.58,27.58,0,0,0-3.63,9.74c-.31,2.84.32,4.66,1.93,5.58s3.75,0,4.57-.46c5.57-2.94,9.47-8.82,12.54-14.2a18.51,18.51,0,0,0,3.07-.4l.05,0c-.07.24-.73,2.2-.73,2.2-1.95,5.71-2.85,9.59-1,11.89,2.63,3.24,7-.11,10.52-4.55-.76,5.32,2,6.15,4.09,5.74,2.41-.65,5.1-3.23,6.35-4.55-.4,1.55-.29,4.32,1.9,4.6,1.51.28,2.63-.54,3.93-1.24,4.68-2.55,10.27-11,11.72-13.48h-1.9c-2.07,3.12-4.69,7.21-8,9.16Zm-41.94-.57a2.61,2.61,0,0,1-.4-1.44c-.06-3.2,3.38-8.93,5.81-12h0a9.45,9.45,0,0,0,4.71,4.27c-1.73,3.85-7.65,12.09-10.13,9.22Zm11.1-10.94a4.86,4.86,0,0,1-3.63-3.56c-.47-2.31,1.12-4.12,2.66-5a2.7,2.7,0,0,1,2.4-.44,2.41,2.41,0,0,1,.86,2.15,13.63,13.63,0,0,1-.13,1.6l0,.12a21.36,21.36,0,0,1-2.14,5.17Zm23.31,9.91-.55.49c-.78.7-1.59,1.45-2.56,1.08a1,1,0,0,1-.51-.74,12.71,12.71,0,0,1,1.74-5.67l.22-.48c2.52-4.2,5.45-9.16,9.75-12.6a2.44,2.44,0,0,1,2.34-.62,1.23,1.23,0,0,1,.42.8,1.33,1.33,0,0,1-.14.44c-1.2,1.94-2.35,4-3.46,5.93a81.87,81.87,0,0,1-7.25,11.37Z" transform="translate(-10.17 -68.31)"/></g></svg>