<svg id="Capa_3" data-name="Capa 3" xmlns="http://www.w3.org/2000/svg" viewBox="0 0 132.24 98.21"><defs><style>.cls-1,.cls-2{fill:#303032;}.cls-2{font-size:5.36px;font-family:MyriadPro-Regular, Myriad Pro;}.cls-3{letter-spacing:-0.04em;}.cls-4{font-size:4.19px;}</style></defs><path class="cls-1" d="M91.32,116.1l-4.67-12.54s-9-5.13-11.51-14.7,2.5-24.27,13.21-28.71,20.52-3.88,29.52,5.81,9.57,27.35-5.36,37.49l-4.9,12.65s21.08-3.19,26.21-27.58-16.64-41.59-33.5-41.25S68.53,57.19,65,76.78,75.93,113.48,91.32,116.1Z" transform="translate(-31.82 -47.27)"/><path class="cls-1" d="M88.36,104.51a24,24,0,0,0,8.31,1.59v11.59H93l-5.13-13.45Z" transform="translate(-31.82 -47.27)"/><path class="cls-1" d="M110.67,104.51a23.42,23.42,0,0,1-8.21,1.59v11.59h3.67l5.08-13.45Z" transform="translate(-31.82 -47.27)"/><polygon class="cls-1" points="65.69 58.82 69.82 58.82 69.82 70.42 69.29 70.94 66.28 70.94 65.69 70.42 65.69 58.82"/><path class="cls-1" d="M111.21,75.45l7.26,3.07S117.41,65.86,102.88,63H96.67S83.26,64.54,80.84,78.52c0,0-3.58,19.77,16.84,22.55,0,0,16.11,2.49,20.79-15.37l-7.26,2.63a13,13,0,0,1-9.57,7.18c-7,1-18.38-5-14.57-18.82,0,0,3.56-7.9,12.5-8.19C99.57,68.5,108.33,68.71,111.21,75.45Z" transform="translate(-31.82 -47.27)"/><path class="cls-1" d="M118.59,85.72h-.12c-1.93,2.43-3.74,3-4.91,3.16l-.18,0c-.65,3.69-4.11,6.77-7.86,7.8-3.94,1.07-9.1,1.15-12.78-.69a14.52,14.52,0,0,1-7.38-8.65c-1.1-3.58,1.72-10.58,2.18-11.7.79-1.21,3.14-7.37,7.29-8.68,3.9-1.23,7.86-.45,11.6.9a11.86,11.86,0,0,1,6,4.24,13.37,13.37,0,0,1,1.32,2.17c.21.47.41,1,.62,1.44a18.59,18.59,0,0,1,3.66,2.64l.48.2.11.06a19.91,19.91,0,0,0-19.07-15.9,19.39,19.39,0,1,0,19,23Z" transform="translate(-31.82 -47.27)"/><circle cx="67.71" cy="34.83" r="13.74"/><path class="cls-1" d="M100,130.3c-1.23,0-2.45,0-3.68,0-1,0-1.15.34-.72,1.21a4.06,4.06,0,0,0,6.65.55,2.16,2.16,0,0,1,1.21-.89c.33-.08.7-.5,1-.25s0,.72-.18,1a5.74,5.74,0,0,1-6.9,3.05,5.74,5.74,0,1,1,7.32-5.83c0,.83-.18,1.17-1.07,1.11-1.19-.06-2.39,0-3.59,0Z" transform="translate(-31.82 -47.27)"/><path class="cls-1" d="M135.1,127.13c0-2.16,0-4.33,0-6.49,0-.35-.34-.9.29-1a1.6,1.6,0,0,1,1.52,1.15c0,1.1,0,2.2,0,3.3,0,.32,0,.68.3.85s.59-.14.84-.32a4,4,0,0,1,6.32,2.47,46.23,46.23,0,0,1,.16,7.35c0,.82-.68.46-1.1.52s-.74-.15-.73-.7c0-1.81,0-3.62,0-5.43a3.1,3.1,0,0,0-1.33-2.85,2.8,2.8,0,0,0-4.34,2.25c-.13,1.93-.11,3.87-.09,5.81,0,.71-.19.95-.92.95s-1-.2-.93-.93v-6.89Z" transform="translate(-31.82 -47.27)"/><path class="cls-1" d="M164.05,129.55a5.76,5.76,0,1,1-5.57-5.75A5.58,5.58,0,0,1,164.05,129.55Z" transform="translate(-31.82 -47.27)"/><path class="cls-1" d="M43.18,128.29a4.49,4.49,0,0,1-2.46-1.39,4,4,0,0,0-5.94-.33,4.11,4.11,0,1,0,6,5.57,2.53,2.53,0,0,1,1.46-1c.29-.07.6-.48.86-.16s-.07.61-.19.9a5.78,5.78,0,1,1,.21-4C43.15,127.93,43.15,128,43.18,128.29Z" transform="translate(-31.82 -47.27)"/><path class="cls-1" d="M112.89,135.33a5.78,5.78,0,1,1,5.49-7.87c.09.23.31.5.1.72s-.47-.07-.7-.13a3.31,3.31,0,0,1-1.71-1.19,4,4,0,0,0-5.95-.26,4.12,4.12,0,1,0,6.09,5.53,2.82,2.82,0,0,1,.29-.39c.55-.53,1.38-1,1.93-.75s-.22,1.08-.51,1.58A5.63,5.63,0,0,1,112.89,135.33Z" transform="translate(-31.82 -47.27)"/><path class="cls-1" d="M126.8,135.33a5.76,5.76,0,0,1-5.76-5.11,5.8,5.8,0,0,1,11.2-2.69c.07.2.24.44.08.63s-.41,0-.61-.06a3.64,3.64,0,0,1-1.8-1.21,4,4,0,0,0-5.94-.32,4.11,4.11,0,1,0,5.94,5.66,3.56,3.56,0,0,1,1.78-1.22c.2-.06.4-.31.61-.1s0,.43-.05.63A5.76,5.76,0,0,1,126.8,135.33Z" transform="translate(-31.82 -47.27)"/><path class="cls-1" d="M63.47,126.14c0-2.52,0-5,0-7.57,0-.37-.4-1.07.45-1.12a1.81,1.81,0,0,1,1.61,1.24,2.81,2.81,0,0,1,0,.29c0,4.85,0,9.7,0,14.55,0,1.37-.14,1.49-1.15,1.53-.74,0-1-.26-.94-1,0-2.66,0-5.31,0-8Z" transform="translate(-31.82 -47.27)"/><path class="cls-1" d="M76.3,134.7a5.28,5.28,0,0,1-5.83-.35A5.49,5.49,0,0,1,68,128.74a5.15,5.15,0,0,1,2-3.6.64.64,0,0,1,.25.49c.09.54.33.74.87.48.19-.09.45-.17.5.2s-.46.68-.72,1-.49.49-.32.84.5.24.78.24H76a1.89,1.89,0,0,1,1.21.21c.1.53-.35.43-.61.49s-.64,0-1,.1c-.16,0-.32.12-.33.3a.35.35,0,0,0,.3.33,8.18,8.18,0,0,0,3,0c.34-.05.31-.43.33-.72s0-.78.29-1.07a1.75,1.75,0,0,1,.17.43c.27,1.8.17,1.92-1.63,1.91H71.07c-.32,0-.68-.09-.88.25s0,.68.22,1a4,4,0,0,0,4.83,1.55l.81-.29C75.86,133.53,75.68,134.17,76.3,134.7Z" transform="translate(-31.82 -47.27)"/><path class="cls-1" d="M57.23,126.12c0-2.55,0-5.1,0-7.65,0-.34-.31-1,.36-1s1.39.15,1.58,1a2,2,0,0,1,0,.49q0,7.45,0,14.91c0,1.09-.56,1.47-1.59,1.14-.53-.17-.4-.59-.41-1v-7.94Z" transform="translate(-31.82 -47.27)"/><path class="cls-1" d="M46.72,124.77c2.67-2.17,7.21-.87,8.53,2.47a5.66,5.66,0,0,1-.68,5.76c-.11.15-.21.33-.44.32-.38-.51-.74-1-1.44-.38-.16.14-.42.21-.56-.1,0-.38.33-.61.55-.88,1.4-1.64,1.2-5.33-2-6a2.77,2.77,0,0,0-1.43,0,1.41,1.41,0,0,1-1,.09c-.27-.33.07-.43.24-.57s.56-.3.31-.67-.52-.3-.86-.21S47.16,125.11,46.72,124.77Z" transform="translate(-31.82 -47.27)"/><path class="cls-1" d="M88.5,131.58a23.39,23.39,0,0,1-1.08,2.89c-.16.48-.54.48-.94.47s-.83,0-1-.49c-1.34-3.38-2.71-6.76-4.07-10.16a2.37,2.37,0,0,1,2.6,1.63c.6,1.68,1.18,3.35,1.78,5,.12.35.13.84.65.85s.59-.49.74-.87a3.54,3.54,0,0,1,.19-.33.37.37,0,0,1,.18.32C87.37,131.84,87.92,131.73,88.5,131.58Z" transform="translate(-31.82 -47.27)"/><path class="cls-1" d="M147.93,129.13c0-1.65,0-3.3,0-4.94,0-.64.09-.79.75-.56a1.44,1.44,0,0,1,1.17,1.65c-.1,2.9-.09,5.81-.08,8.72,0,.73-.23.92-.94.93s-.94-.25-.92-1c0-1.61,0-3.23,0-4.84Z" transform="translate(-31.82 -47.27)"/><path class="cls-1" d="M79.2,128.07c0,2.14,0,2.15-2.19,2.13a11.54,11.54,0,0,1-1.44,0,.78.78,0,0,1-.71-.79c0-.39.43-.41.73-.48.54-.12,1.15.2,1.66-.22a3.7,3.7,0,0,0-2.94-3.07,1.36,1.36,0,0,1-.85-1.18c-.08-.41.16-.64.54-.58a5.87,5.87,0,0,1,1.32.15A5.38,5.38,0,0,1,79.2,128.07Z" transform="translate(-31.82 -47.27)"/><path class="cls-1" d="M47.09,134.51a4.78,4.78,0,0,1-2.29-2.34,6,6,0,0,1-.09-4.92c.1-.25.16-.6.53-.6s.57.27.74.55a1.75,1.75,0,0,1,.16,1.31,4,4,0,0,0,0,1.81,3.78,3.78,0,0,0,2.94,3.11,2.18,2.18,0,0,1,1.34.87c.34.53.17.81-.45.87A5.65,5.65,0,0,1,47.09,134.51Z" transform="translate(-31.82 -47.27)"/><path class="cls-1" d="M88.5,131.58c-.37,0-.37.78-.91.49-.73-.38,0-1-.26-1.48.58-1.71,1.15-3.43,1.75-5.13.37-1,1.46-.88,2.18-1.32l.24.17Z" transform="translate(-31.82 -47.27)"/><path class="cls-1" d="M45.92,130.46a3.5,3.5,0,0,1-.08-1.9,2.94,2.94,0,0,0,.1-.76c-.06-.42-.24-.91-.68-1s-.47.47-.57.78a6.39,6.39,0,0,0-.12,3.52c.07.35.3.66.23,1a5.49,5.49,0,0,1,1.92-7.4,1.7,1.7,0,0,0,1-.36.9.9,0,0,1,1.38.35c.41.73-.33.65-.6.9l-.35.31a.37.37,0,0,1-.12.35,4.75,4.75,0,0,0-1.88,3.94A.39.39,0,0,1,45.92,130.46Z" transform="translate(-31.82 -47.27)"/><path class="cls-1" d="M47.09,134.51c.92.1,1.74.71,2.71.56.21,0,.48.06.58-.21s-.11-.42-.26-.58a1.67,1.67,0,0,0-1-.58,4.07,4.07,0,0,1-3.15-3.24l.08-.07c.37,0,.41.37.54.61a3.81,3.81,0,0,0,4.75,2.05,1.63,1.63,0,0,1,.84-.15.6.6,0,0,0,.59-.21c.82-.65,1.18-.48,1.41.63l-.39.39a16.22,16.22,0,0,1-1.35,1A5.15,5.15,0,0,1,47.09,134.51Z" transform="translate(-31.82 -47.27)"/><path class="cls-1" d="M75.32,124a4.76,4.76,0,0,0-.76,0c-.32,0-.89-.2-.88.23a1,1,0,0,0,.78,1.16c.41.09,1,0,1.21.57a19.57,19.57,0,0,0-4,.17s-.07,0-.09,0c-1.28.61-1.43.51-1.49-1A5.15,5.15,0,0,1,75.32,124Z" transform="translate(-31.82 -47.27)"/><path class="cls-1" d="M76.3,134.7c-1-.48-1-1-.25-1.81l.76-.75a2.7,2.7,0,0,1,1.21-.95c.4-.12.88-.68,1.19-.26s-.17.86-.42,1.28A7.5,7.5,0,0,1,76.3,134.7Z" transform="translate(-31.82 -47.27)"/><path class="cls-1" d="M149.82,121.53c.05.5-.17.69-.68.46s-1.51-.38-1.31-1.44c0-.2.06-.37.31-.41A1.75,1.75,0,0,1,149.82,121.53Z" transform="translate(-31.82 -47.27)"/><path class="cls-1" d="M52.39,134.71a2.75,2.75,0,0,1,1.35-1A1.81,1.81,0,0,1,52.39,134.71Z" transform="translate(-31.82 -47.27)"/><path class="cls-1" d="M78,131.19l-1.2.95A1.27,1.27,0,0,1,78,131.19Z" transform="translate(-31.82 -47.27)"/><path d="M99,128.81c-1,0-1.94,0-2.91,0-.78,0-1-.33-.64-1.07a4,4,0,0,1,3.72-2.19,3.71,3.71,0,0,1,3.46,2.24c.3.63.11,1-.62,1C101,128.82,100,128.81,99,128.81Z" transform="translate(-31.82 -47.27)"/><path d="M158.27,133.52a3.92,3.92,0,0,1-3.91-4,3.95,3.95,0,1,1,7.89,0A3.88,3.88,0,0,1,158.27,133.52Z" transform="translate(-31.82 -47.27)"/><path d="M71.62,126.15a4.94,4.94,0,0,1,4-.17,4.57,4.57,0,0,1,1.51,1.55c.2.37.38.75.07,1.15H71.09c-.34,0-.78.12-.93-.3a1,1,0,0,1,.29-1C70.82,127,71.23,126.57,71.62,126.15Z" transform="translate(-31.82 -47.27)"/><path class="cls-1" d="M57.44,131.26v-2.72c0-.18-.07-.42.14-.52s.42.12.54.29a3,3,0,0,1,.88,2.15A27.1,27.1,0,0,0,59,134c0,.75-.43.86-1,.89s-.62-.43-.61-.87v-2.71Z" transform="translate(-31.82 -47.27)"/><path d="M52.13,132.9c-1.87,1.09-4.88,1-6.13-2.51A4.32,4.32,0,0,1,48.12,126a5.16,5.16,0,0,1,2.64-.29,3.76,3.76,0,0,1,2.89,2.82,3.84,3.84,0,0,1-1,3.85Z" transform="translate(-31.82 -47.27)"/><text class="cls-2" transform="translate(42.22 96.79)">A R<tspan class="cls-3" x="7.29" y="0"> </tspan><tspan x="8.21" y="0">T E S </tspan><tspan class="cls-4" x="19.55" y="0"> </tspan><tspan x="20.44" y="0">G R A F I C A S</tspan></text></svg>