<svg id="Capa_3" data-name="Capa 3" xmlns="http://www.w3.org/2000/svg" viewBox="0 0 194.96 36.2"><defs><style>.cls-1,.cls-2{fill:#313133;}.cls-2{fill-rule:evenodd;}</style></defs><path class="cls-1" d="M13.24,102.85h-.49s-.36-4.45-1.27-5.75c-.29-.43-1.23-.72-1.23.22v14.2a2.67,2.67,0,0,0,.91,2.11,6,6,0,0,0,1.91.75v.49H3v-.49a3,3,0,0,0,1.79-.71,3.34,3.34,0,0,0,.52-2.11V83.19a3.73,3.73,0,0,0-.42-2A2.6,2.6,0,0,0,3,80.36v-.49H16.16L16,92.29h-.49c.13-7.35-2.11-11.28-5.26-11.18V94.46c0,1,.94.65,1.23.23,1.2-1,1.27-6.24,1.27-6.24h.49Z" transform="translate(-3 -79)"/><path class="cls-1" d="M27.92,102.85h-.49s-.35-4.45-1.26-5.75c-.3-.43-1.24-.72-1.24.22v16.31c3.15.1,5.4-3.83,5.27-11.17h.48l.17,12.41H17.65v-.49a3.26,3.26,0,0,0,1.47-.42l.39-.29a3.5,3.5,0,0,0,.52-2.11V83.19a3.63,3.63,0,0,0-.43-2,1.91,1.91,0,0,0-.48-.42,3,3,0,0,0-1.43-.39v-.49H30.85l-.17,12.42H30.2c.13-7.35-2.12-11.28-5.27-11.18V94.46c0,1,.94.65,1.24.23,1.2-1,1.26-6.24,1.26-6.24h.49Z" transform="translate(-3 -79)"/><path class="cls-1" d="M76.43,102.85H76s-.36-4.45-1.27-5.75c-.29-.43-1.24-.72-1.24.22v16.31c3.16.1,5.4-3.83,5.27-11.17h.49l.16,12.41H66.2v-.49a3.22,3.22,0,0,0,1.46-.42l.39-.29a3.5,3.5,0,0,0,.52-2.11V83.19a3.73,3.73,0,0,0-.42-2,2.11,2.11,0,0,0-.49-.42,3,3,0,0,0-1.43-.39v-.49H79.39l-.16,12.42h-.49c.13-7.35-2.11-11.28-5.26-11.18V94.46c0,1,.94.65,1.23.23,1.2-1,1.27-6.24,1.27-6.24h.49v14.4Z" transform="translate(-3 -79)"/><path class="cls-1" d="M53.53,91.25v20.89a2.6,2.6,0,0,0,.48,1.53,3,3,0,0,0,1.79.71v.49H49.5v-.49a2.87,2.87,0,0,0,1.75-.71,3.16,3.16,0,0,0,.52-2.11V82.93a3.16,3.16,0,0,0-.45-1.76,2.11,2.11,0,0,0-.49-.42,3,3,0,0,0-1.43-.39v-.49h7L60.9,98.1l0-15.53A2.83,2.83,0,0,0,60.45,81a3,3,0,0,0-1.79-.71v-.49H65v.49a2.43,2.43,0,0,0-1.49.71A3.35,3.35,0,0,0,63,83.16V114.8H59.31L53.56,91.21h0Z" transform="translate(-3 -79)"/><path class="cls-1" d="M90.31,114.87h-7v-.49a3,3,0,0,0,1.79-.71,2.66,2.66,0,0,0,.49-1.69V81.63h-.75c-1.88,0-2.44,5.2-2.89,8.68H81.4V79.87H94.53V90.31H94c-.46-3.48-1-8.68-2.93-8.68h-.71v30a2.48,2.48,0,0,0,.91,2,7.17,7.17,0,0,0,1.91.75v.49Z" transform="translate(-3 -79)"/><path class="cls-2" d="M46.77,112c0,.81.55,2.43,2.11,2.43v.49c-2.7,0-7,.71-7-4.58V98.59c0-1.92-2.3-2.44-2.3-1.2v14.13a3.09,3.09,0,0,0,.52,2.11,2.84,2.84,0,0,0,1.75.72v.49H32.37v-.49a2.86,2.86,0,0,0,1.76-.72,3.14,3.14,0,0,0,.52-2.11V82.73A2.55,2.55,0,0,0,34.13,81a3,3,0,0,0-1.76-.74v-.46h8.91c3.47,0,5.42,1,5.42,4.55V91c0,2.24-1.3,4.55-3.18,4.55,1.95.58,3.21,2.31,3.21,6V112Zm-5-19c0,1.86-.88,1.92-2.21,1.92V81.17c1.33,0,2.21.07,2.21,1.92Z" transform="translate(-3 -79)"/><path class="cls-2" d="M136,112c0,.81.56,2.43,2.12,2.43v.49c-2.7,0-7,.71-7-4.58V98.59c0-1.92-2.31-2.44-2.31-1.2v14.13a3.14,3.14,0,0,0,.52,2.11,2.88,2.88,0,0,0,1.76.72v.49H121.7v-.49a3,3,0,0,0,1.78-.72,3.32,3.32,0,0,0,.52-2.11V82.73a2.72,2.72,0,0,0-.49-1.69,3.06,3.06,0,0,0-1.78-.74v-.46h8.9c3.48,0,5.43,1,5.43,4.55V91c0,2.24-1.3,4.55-3.19,4.55,1.95.58,3.19,2.31,3.19,6V112Zm-4.93-19c0,1.86-.88,1.92-2.21,1.92V81.17c1.33,0,2.21.07,2.21,1.92Z" transform="translate(-3 -79)"/><path class="cls-2" d="M150.65,109.31c.19,1.47.42,4,.84,4.36a2.65,2.65,0,0,0,1.63.71v.49h-8.26v-.49a1.35,1.35,0,0,0,1.24-.78c.52-1-1-10.3-1-10.3h-2.41l-.68,9.29c-.13,1.86,2.41,1.79,2.41,1.79v.49h-5.79v-.49c1.37,0,1.82-1.82,1.92-3l2.4-31.87h4Zm-7.12-17.64,1.37,9.94h-2.12Z" transform="translate(-3 -79)"/><path class="cls-1" d="M157.31,91.25v20.89a2.6,2.6,0,0,0,.48,1.53,3,3,0,0,0,1.79.71v.49h-6.3v-.49a2.87,2.87,0,0,0,1.75-.71,3.1,3.1,0,0,0,.52-2.11V82.93a3.16,3.16,0,0,0-.45-1.76,2.11,2.11,0,0,0-.49-.42,3,3,0,0,0-1.43-.39v-.49h6.95l4.55,18.23,0-15.53a2.92,2.92,0,0,0-.49-1.53,3,3,0,0,0-1.79-.71v-.49h6.3v.49a2.43,2.43,0,0,0-1.49.71,3.35,3.35,0,0,0-.52,2.12V114.8h-3.64l-5.75-23.59h0Z" transform="translate(-3 -79)"/><path class="cls-1" d="M173.33,112.66a5.7,5.7,0,0,0,4.06,2.44c2.08.06,2.89-1.14,3.41-1.14.81,0,1.27,1.23,1.27,1.23h.42l-.1-11h-.65c-.16,6.92-2.44,9.62-3.74,9.62-1.13,0-2-1.17-2.27-3.58a94.88,94.88,0,0,1-.52-12.86c0-13.75-.32-17,2-17,1.29,0,3.57,2.7,3.73,9.62h.65l.1-11h-.42s-.46,1.23-1.27,1.23c-.52,0-1.33-1.23-3.41-1.13-4.78.19-6.53,8.35-6.53,18.35,0,6.6,1,12.19,3.25,15.21" transform="translate(-3 -79)"/><path class="cls-2" d="M195.49,109.31c.19,1.47.42,4,.84,4.36a2.65,2.65,0,0,0,1.63.71v.49H189.7v-.49a1.35,1.35,0,0,0,1.24-.78c.52-1-1-10.3-1-10.3h-2.41l-.68,9.29c-.13,1.86,2.4,1.79,2.4,1.79v.49h-5.78v-.49c1.37,0,1.82-1.82,1.92-3l2.4-31.87h4Zm-7.12-17.64,1.36,9.94h-2.11Z" transform="translate(-3 -79)"/><polygon class="cls-1" points="101.18 15.95 99.39 19.33 91.24 19.33 93.03 15.95 101.18 15.95"/><path class="cls-2" d="M114.81,111.43c0,1.85-.88,1.91-2.21,1.91V96.51c1.33,0,2.21.07,2.21,1.92Zm-7.09,3.44h-2.3v-.49a2.87,2.87,0,0,0,1.75-.71,3.34,3.34,0,0,0,.52-2.11V82.77a2.51,2.51,0,0,0-.52-1.69,3,3,0,0,0-1.75-.75v-.46h8.9c3.48,0,5.43,1,5.43,4.55v6.63c0,2.24-1.3,4.55-3.19,4.55,2,.59,3.22,2.31,3.22,6v6c0,2.89.68,7.25-5.62,7.25h-6.44Zm7.09-22c0,1.86-.88,1.92-2.21,1.92V81.17c1.33,0,2.21.07,2.21,1.92Z" transform="translate(-3 -79)"/></svg>