<?xml version="1.0" encoding="utf-8"?>
<!-- Generator: Adobe Illustrator 24.1.1, SVG Export Plug-In . SVG Version: 6.00 Build 0)  -->
<svg version="1.1" xmlns="http://www.w3.org/2000/svg" xmlns:xlink="http://www.w3.org/1999/xlink" x="0px" y="0px"
	 viewBox="0 0 25.1 25.1" style="enable-background:new 0 0 25.1 25.1;" xml:space="preserve">
<style type="text/css">
	.st0{display:none;}
	.st1{display:inline;opacity:0.13;}
	.st2{display:inline;fill:#FFFFFF;}
	.st3{fill:none;stroke:url(#SVGID_1_);stroke-width:1.5;stroke-miterlimit:10;}
	.st4{fill:#FFFFFF;}
</style>
<g id="Capa_2" class="st0">
	<rect x="-1.1" y="-0.2" class="st1" width="28.7" height="25.9"/>
</g>
<g id="Capa_1" class="st0">
	<path class="st2" d="M10.1,6.9C8.4,6.9,7,8.2,7,10v5c0,1.7,1.4,3.1,3.1,3.1h5c1.7,0,3.1-1.4,3.1-3.1v-5c0-1.7-1.4-3.1-3.1-3.1H10.1
		z M10.1,8.1h5c1,0,1.9,0.8,1.9,1.9v5c0,1-0.8,1.9-1.9,1.9h-5c-1,0-1.9-0.8-1.9-1.9v-5C8.3,8.9,9.1,8.1,10.1,8.1z M15.7,8.7
		c-0.3,0-0.6,0.3-0.6,0.6c0,0.3,0.3,0.6,0.6,0.6c0.3,0,0.6-0.3,0.6-0.6C16.3,9,16,8.7,15.7,8.7z M12.6,9.3c-1.7,0-3.1,1.4-3.1,3.1
		s1.4,3.1,3.1,3.1s3.1-1.4,3.1-3.1S14.3,9.3,12.6,9.3z M12.6,10.6c1,0,1.9,0.8,1.9,1.9s-0.8,1.9-1.9,1.9s-1.9-0.8-1.9-1.9
		S11.6,10.6,12.6,10.6z"/>
</g>
<g id="Capa_4">
	<linearGradient id="SVGID_1_" gradientUnits="userSpaceOnUse" x1="-0.2018" y1="12.5754" x2="25.2982" y2="12.5754">
		<stop  offset="8.132857e-07" style="stop-color:#808080"/>
		<stop  offset="1" style="stop-color:#020202"/>
	</linearGradient>
	<circle class="st3" cx="12.5" cy="12.6" r="12"/>
	<path class="st4" d="M18.8,7.9c-0.5,0.3-1.4,0.6-1.9,0.7c0,0,0,0,0,0c-0.5-0.5-1.1-0.8-1.9-0.8c-1.5,0-2.6,1.2-2.6,2.6
		c0,0.1,0,0.2,0,0.3c-2,0-3.5-1-4.5-2.3C7.7,8.8,7.6,9.2,7.6,9.7c0,0.8,0.6,1.6,1.6,2.1c-0.2,0-0.4,0.1-0.6,0.1
		c-0.3,0-0.7-0.1-1-0.4c0,0,0,0,0,0c0,1.1,1.2,1.9,2.3,2.1c-0.2,0.1-0.7,0.1-0.9,0.1c-0.2,0-0.7-0.1-0.8-0.1
		c0.3,0.9,1.4,1.5,2.4,1.5c-0.8,0.6-1.4,0.9-3,0.9H7c1,0.7,2.4,1.2,3.7,1.2c4.4,0,6.8-3.3,6.8-6.4c0-0.1,0-0.2,0-0.3c0,0,0,0,0,0
		c0,0,0,0,0,0c0-0.1,0-0.2,0-0.2c0.5-0.3,0.9-0.8,1.2-1.2c-0.4,0.2-0.9,0.3-1.4,0.4C17.9,9.1,18.6,8.4,18.8,7.9z M16.4,10.8
		c0,2.4-1.7,4.9-5,5.2c0.4-0.3,0.9-0.7,0.9-0.7s-1.8-1.6-1.9-3.6c0.6,0.2,1.2,0.3,1.9,0.3h1.2v-1.5c0,0,0,0,0,0
		c0-0.8,0.7-1.5,1.5-1.5c0.8,0,1.5,0.7,1.5,1.5C16.4,10.5,16.4,10.8,16.4,10.8z"/>
</g>
<g id="Capa_3">
</g>
</svg>
