<svg id="Capa_3" data-name="Capa 3" xmlns="http://www.w3.org/2000/svg" viewBox="0 0 175.34 62.49"><defs><style>.cls-1{fill:#313133;}</style></defs><path class="cls-1" d="M31.27,135.58q-7.83-.3-12.84-4.29a25.89,25.89,0,0,1-2.67-2.67,16.83,16.83,0,0,1-2.89-5.2c-1.89-5.67-.92-13.1,2.78-21.26,3.17-7,8.06-13.91,16.6-23.5,1.25-1.41,5-5.54,5-5.54s-.19.35-.45.78a50.16,50.16,0,0,0-5.15,11.89c-1.66,6.08-1.46,11.29.59,15.34a15,15,0,0,0,6.55,6.54c4.77,2.33,11.75,2.53,20.27.56.59-.13,29.67-7.85,64.63-17.15s63.56-16.91,63.56-16.9S106.06,108.94,63.9,127c-6.68,2.86-8.47,3.58-11.61,4.68-8,2.82-15.21,4.16-21,3.93Z" transform="translate(-11.93 -73.12)"/></svg>