<?xml version="1.0" encoding="utf-8"?>
<!-- Generator: Adobe Illustrator 24.3.0, SVG Export Plug-In . SVG Version: 6.00 Build 0)  -->
<svg version="1.1" id="Layer_1" xmlns="http://www.w3.org/2000/svg" xmlns:xlink="http://www.w3.org/1999/xlink" x="0px" y="0px"
	 viewBox="0 0 512 512" style="enable-background:new 0 0 512 512;" xml:space="preserve">
<style type="text/css">
	.st0{fill:#FFFFFF;}
	.st1{fill:#CC0000;}
</style>
<g id="g5082" transform="translate(-48.273174,-19.927549)">
	<g id="XMLID_7_">
		<path id="path4163_1_" class="st0" d="M558.4,275.9c0,140.29-113.81,254.1-254.1,254.1S50.2,416.19,50.2,275.9l0,0
			c0-140.29,113.81-254.1,254.1-254.1S558.4,135.61,558.4,275.9z"/>
		<path id="XMLID_4_" class="st1" d="M304.3,531.9c-68.32,0-132.68-26.62-180.96-75.04C74.92,408.43,48.3,344.22,48.3,275.9
			s26.62-132.68,75.04-180.96C171.77,46.52,235.98,19.9,304.3,19.9s132.68,26.62,180.96,75.04
			c48.42,48.42,75.04,112.64,75.04,180.96s-26.62,132.68-75.04,180.96C436.98,505.28,372.62,531.9,304.3,531.9z M304.3,23.7
			c-139.12,0-252.2,113.08-252.2,252.2s113.08,252.2,252.2,252.2s252.2-113.08,252.2-252.2C556.5,136.93,443.27,23.7,304.3,23.7z"/>
	</g>
	<path id="XMLID_2_" class="st1" d="M305.18,502.64c-60.27,0-116.88-23.41-159.45-65.97s-66.12-99.18-66.12-159.45v-0.15
		c0-60.27,23.41-116.88,65.97-159.45S244.76,51.5,305.03,51.5c0,0,0,0,0.15,0c124.34,0,225.43,101.08,225.57,225.43v0.15
		C530.75,401.41,429.67,502.5,305.18,502.64L305.18,502.64z M305.18,62.62L305.18,62.62c-57.34,0-111.18,22.38-151.55,62.9
		c-40.52,40.52-62.76,94.35-62.76,151.55v0.15c0,57.2,22.38,111.03,62.9,151.55c40.52,40.37,94.21,62.76,151.55,62.76
		c0,0,0,0,0.15,0c118.2,0,214.31-96.26,214.31-214.45v-0.15C519.49,158.73,423.38,62.62,305.18,62.62z"/>
	<path id="path5152" class="st1" d="M278.85,133.27h46.67v-8.34l10.97-16.68l-20.77,9.07l-13.46-14.34c0,0-12.14,13.75-14.34,12.73
		c-2.05-1.02-20.04-8.05-20.04-8.05l10.97,16.82L278.85,133.27L278.85,133.27z"/>
	<path id="path5154" class="st1" d="M405.82,153.31c-5.12,6.73-6.44,22.67-13.46,26.92c-7.02,4.24-15.65,5.56-19.6,16.38L372.62,207
		c0.15,1.17-0.44,2.19-1.61,3.07l-9.36,0.15c-11.56,12-36.13,41.25-36.28-4.39l0.44-10.97l9.22-0.29c7.75-1.61,9.36-16.24,6-13.75
		c-13.17,8.48-14.77-3.07-12.87-9.8c1.9-6.58,10.83-13.17,11.85-14.48c2.05-4.39,1.17-12.29-0.15-10.97
		c-2.49,10.83-27.06,8.05-35.11-0.29c-29.99-1.17-44.47,7.61-55.59,13.17c-1.61,1.02,0.44,7.75,1.46,7.31
		c13.75-6.44,23.11-11.85,23.11,4.83c-7.9,0.59-31.45,1.17-31.31-6.14c0-1.76-1.46-1.46-1.76-1.32
		c-16.68,15.36,20.19,17.99,35.25,11.12c0,2.49,1.46,5.41-1.76,7.02c-5.71,0.73-15.95-2.05-17.12,0c-3.8,8.34,12.43,9.95,24.43,7.31
		c2.34,3.66,5.41,7.17,3.51,11.7l-11.7,0.73l7.75,6.73l5.41-3.8c-0.15,45.64-24.72,21.94-39.64,6.58l-9.36-0.15
		c-1.17-0.88-1.76-1.9-1.61-3.07l-0.15-10.39c-4.1-10.83-12.73-12.14-19.6-16.38s-8.34-20.19-13.31-26.92
		c-20.33,3.51-13.75,42.57-2.34,53.98c2.49,1.32,5.71,11.12,0.73,8.34c-10.39-5.41-44.47-32.04-43.89-32.62
		c-6.73,7.46-5.27,21.07,3.22,28.67c7.46,6.58,17.12,14.48,26.77,23.7c0.73,0.88,1.02,1.76-0.15,2.63l-45.49,0.44
		c-6.29-1.17-9.36-1.46-14.19-0.73c0,20.63,29.26,23.26,61.29,24.28c1.17,0.88,1.76,1.76,1.17,2.93
		c-25.31,7.02-51.49,12.87-75.19,21.65c-0.29,25.31,55.73,15.65,86.02,2.63c3.95-1.76,13.17-5.12,6.29,1.46l-68.9,47.69
		c2.34,10.68,20.77,21.65,78.12-20.04c3.66-2.63,7.31-4.53,10.39-6.58c4.39-3.22,6.88-0.29,4.68,2.19
		c-4.39,9.22-12,16.09-17.85,23.41l5.85,4.53c-12.29,13.02-17.26,20.33-19.31,22.67c-1.46,1.76-2.34,1.9-3.8,1.02
		c-2.93-3.07-6-6.14-10.39-8.48c-0.59-0.15-1.46-0.15-3.36,0.88c-2.78,1.46-9.22,0.15-12.14,0.59c-9.65,3.07-6.44,5.12-6.29,8.78
		c2.63-1.32,2.19-4.1,9.51-3.22c2.93,4.24,7.31,6.73,12.29,8.19c1.9,0.29,2.93,1.76,1.46,2.63c-4.53,1.61-12.73,3.8-12.43,6
		c-0.29,1.17,0.15,3.07-1.02,3.66c-9.95,3.22-5.85,9.36-3.51,13.46c0.73-3.22,1.46-6.29,4.97-7.31l3.07,0.88
		c2.05,1.02,8.92-3.22,12.43-6.73c0.59-0.59,1.17-0.44,1.9,0.15c-4.39,8.05-4.68,13.17-3.07,16.97c0.73,1.76,2.49-0.59,2.63,1.17
		c0.44,4.1,6.14,9.65,9.22,12c-1.17-4.39-3.95-8.78-2.63-13.17c4.1,0.29,8.78-7.02,3.51-13.75c-1.46-0.88,1.17-5.41,1.9-4.68
		c2.78,3.66,4.97,9.22,8.19,10.83c1.76,0.59,3.51,1.32,5.12,0c3.07,1.46,4.39,5.85,6.44,9.07c1.02-2.63,2.49-4.97,1.76-8.63
		c-0.59-2.78-2.19-3.95-4.53-4.39c1.02-1.46,3.36-3.51,2.19-4.53c-3.66-4.53-8.78-9.07-13.6-12.87c-0.88-0.73-0.59-1.61,0-2.49
		l18.14-22.09l5.27,4.24c6.88-9.22,12.87-18.87,21.94-26.19c3.8-3.07,17.55-2.78,13.17,10.24c-9.36,14.34-20.48,27.06-32.33,39.2
		c-8.78,10.24-4.68,20.33-2.93,28.23c0.15,1.17,2.49-1.61,2.63-3.36c0.15-2.05,0.29-4.97,2.93-6.88
		c1.17,8.19,6.88,16.24,10.97,21.65c-0.44-7.9-1.32-14.19,0-22.09c0.29-0.88,1.32-0.73,1.9,0.15c0.88,4.53,4.53,9.36,8.05,12.73
		c2.63-10.24,0.88-21.21,7.9-31.01c10.39-14.63,19.46-8.05,17.7,6.73l-7.31,19.31c-11.56,13.9-3.51,30.57,4.1,37.45
		c0.73,0.88,2.34-2.34,1.9-4.68c-0.88-6.88,1.02-10.39,4.68-15.21c0.44-0.59,1.76-1.02,2.78,0.15c2.78,7.02,7.17,13.17,11.7,18.87
		c0.44,0.73,1.46,0.73,1.9-0.15c4.53-5.71,9.07-11.7,11.7-18.87c1.02-1.02,2.49-0.73,2.93-0.15c3.66,4.68,5.56,8.34,4.68,15.21
		c-0.44,2.34,1.17,5.56,1.9,4.68c7.46-6.88,15.51-23.55,4.1-37.45l-7.31-19.31c-1.61-14.77,7.31-21.36,17.7-6.73
		c6.88,9.95,5.27,20.92,7.9,31.01c3.51-3.36,7.17-8.19,8.05-12.73c0.59-0.88,1.61-1.02,1.9-0.15c1.32,7.9,0.44,14.19,0,22.09
		c4.1-5.41,9.8-13.46,10.97-21.65c2.63,1.9,2.78,4.83,2.93,6.88c0,1.76,2.34,4.53,2.63,3.36c1.76-8.05,5.85-17.99-2.93-28.23
		c-11.85-12.29-22.97-25.01-32.33-39.35c-4.39-13.02,9.36-13.17,13.17-10.24c9.07,7.17,15.21,16.97,22.09,26.19l5.27-4.24
		l18.14,22.09c0.59,0.88,0.88,1.61,0,2.49c-4.83,3.95-9.8,8.48-13.6,13.02c-1.32,1.02,1.02,3.07,2.19,4.53
		c-2.19,0.44-3.95,1.76-4.53,4.53c-0.59,3.66,0.73,6,1.76,8.63c2.05-3.22,3.36-7.75,6.44-9.22c1.76,1.32,3.36,0.73,5.12,0
		c3.22-1.46,5.41-7.17,8.19-10.83c0.73-0.73,3.22,3.95,1.9,4.68c-5.27,6.73-0.59,13.9,3.51,13.75c1.17,4.39-1.46,8.78-2.63,13.17
		c3.07-2.34,8.92-7.9,9.22-12c0.15-1.9,1.9,0.59,2.63-1.17c1.61-3.8,1.32-9.07-3.07-16.97c0.59-0.59,1.17-0.73,1.9-0.15
		c3.51,3.51,10.53,7.75,12.43,6.73l3.07-1.02c3.36,1.02,4.24,4.24,4.97,7.31c2.34-4.1,6.44-10.24-3.51-13.46
		c-1.17-0.44-0.73-2.34-1.02-3.66c0.29-2.19-7.9-4.39-12.43-6c-1.32-0.88-0.44-2.34,1.46-2.63c4.97-1.61,9.36-3.95,12.29-8.19
		c7.31-0.88,6.88,1.9,9.51,3.22c0.15-3.66,3.36-5.71-6.29-8.78c-2.93-0.44-9.22,0.88-12.14-0.59c-2.05-1.02-2.78-1.17-3.36-0.88
		c-4.39,2.34-7.46,5.27-10.39,8.48c-1.32,0.88-2.34,0.59-3.8-1.02c-2.05-2.49-7.17-9.65-19.31-22.67l5.85-4.53
		c-5.85-7.31-13.46-14.19-17.85-23.41c-2.19-2.34,0.29-5.41,4.68-2.19c3.07,2.19,6.88,4.1,10.39,6.73
		c57.34,41.69,75.78,30.72,78.12,20.04l-68.9-47.69c-6.88-6.58,2.49-3.22,6.29-1.46c30.43,13.02,86.31,22.67,86.02-2.63
		c-23.7-8.78-49.88-14.63-75.19-21.65c-0.59-1.17,0-2.19,1.02-2.93c32.04-0.88,61.29-3.51,61.29-24.14
		c-4.83-0.73-7.75-0.44-14.04,0.73l-45.64-0.44c-1.17-0.88-0.88-1.76-0.15-2.63c9.65-9.07,19.46-16.97,26.77-23.7
		c8.48-7.61,9.95-21.21,3.22-28.67c0.59,0.44-33.5,27.06-43.89,32.62c-4.97,2.78-1.76-7.02,0.73-8.34
		C419.57,195.88,426.16,156.68,405.82,153.31z"/>
	<path id="path2161" class="st0" d="M286.6,157.7c-1.17,0.88,1.02,6.44,2.34,8.78l12.73-10.24
		C296.99,155.36,291.43,155.51,286.6,157.7z"/>
	<path id="path2163" class="st0" d="M280.6,248.98h47.54c1.46,26.92-7.9,61.15-23.41,80.9C289.09,311.01,279.43,275.9,280.6,248.98z
		"/>
	<path id="path2165" class="st1" d="M292.89,259.81v40.37h24.43v-6h-15.07v-11.85H316v-6.29h-13.6v-10.68H316v-5.71L292.89,259.81z"
		/>
	<path id="path2167" class="st0" d="M269.19,267.27l0.15,7.46c-17.55-3.66-34.82-18.87-42.57-37.3c-2.63,3.22-11.7,8.63-16.38,6.88
		c-0.44-3.36,1.32-6.58,14.34-10.09c-7.46-6.58-9.8-15.21-7.9-21.5c5.27,2.19,11.7,9.65,11.26,19.89
		c5.12-4.53,10.24-6.44,18.43-6.14c-2.93,5.71-9.36,8.48-16.38,10.09C238.76,251.03,249.88,263.61,269.19,267.27z"/>
	<path id="path2169" class="st0" d="M339.85,267.27l-0.15,7.46c17.55-3.66,34.82-18.87,42.57-37.3c2.63,3.22,11.7,8.63,16.38,6.88
		c0.44-3.36-1.32-6.58-14.34-10.09c7.46-6.58,9.8-15.21,7.9-21.5c-5.27,2.19-11.7,9.65-11.26,19.89
		c-5.12-4.53-10.24-6.44-18.43-6.14c2.93,5.71,9.36,8.48,16.38,10.09C370.27,251.03,359.16,263.61,339.85,267.27z"/>
</g>
</svg>
