<svg xmlns="http://www.w3.org/2000/svg" viewBox="0 0 451.43 558.08"><defs><style>.cls-1{fill:#fff;}.cls-2{fill:#0032ba;}.cls-3{fill:#e5221c;}.cls-4{fill:#010101;}.cls-5{fill:#e8ac02;}.cls-6{fill:#fbe708;}.cls-7{fill:#cc8010;}</style></defs><g id="escudo"><path class="cls-1" d="M291.85,226.57c-124.46,0-225.72,101.26-225.72,225.71S167.39,678,291.85,678,517.56,576.74,517.56,452.28,416.31,226.57,291.85,226.57" transform="translate(-66.13 -119.92)"/><circle class="cls-2" cx="291.85" cy="452.28" r="214.83" transform="translate(-300.47 218.92) rotate(-45)"/><path class="cls-3" d="M291.85,618.73A166.45,166.45,0,1,1,458.3,452.28,166.45,166.45,0,0,1,291.85,618.73" transform="translate(-66.13 -119.92)"/><path class="cls-4" d="M291.85,301.26a151,151,0,1,0,151,151A151,151,0,0,0,291.85,301.26Z" transform="translate(-66.13 -119.92)"/><path class="cls-1" d="M291.85,592.87A140.59,140.59,0,1,1,432.43,452.28,140.58,140.58,0,0,1,291.85,592.87" transform="translate(-66.13 -119.92)"/><path class="cls-4" d="M407.48,439.85c-.85-1.51-3.06-2-3.41-3.8,4-14.8-.11-32-5.32-46.84-2.93-7-4.75-14.67-10.34-19.92-13.07-3.7-27.14-2.19-41.06-2.16-16.19.92-33.23,6-49,4.73-31-7.56-62.95-13.37-96.74-3.91a2.22,2.22,0,0,1-1.15-1.89c-4.07-3.77-10.7-1.82-15.2.28a8.35,8.35,0,0,0-2.74,9.33c1.09,4.47,6.42,5,9.91,5.76l33.47,126.33c-6.09,8.2-11.24,17.21-7.27,27.35,3.45,6.24,11.43,10.69,18,13.1l8.15,31a5.54,5.54,0,0,0,4.57,1.23,4.09,4.09,0,0,0,3.15-2.73,159.26,159.26,0,0,1-6.86-27.28c4,.34,7.79,1.15,11.4,3.68,7.23,4.5.23,13.76,5.95,18.56,1.69.11,3.84-.3,4.75-1.93A39.54,39.54,0,0,0,267,554c-4.54-9.58-16.2-10-24.54-13.38l-7.58-28.14c6.42-7,18-7,27.24-9.3,19.48-1.79,36.18,10.22,56.26,5.87,30.9-13.46,65.93-13.7,93.05,4.41,1.77-4.69,2.25-9.68,3.29-14.57C417.34,480.24,419.76,456.61,407.48,439.85Zm-189.09,7.36L203.84,391.8l-.76-2.75c17.17,28.73,25.92,67.45,27.14,102.39Zm6.94,82.6a15,15,0,0,1,2.93-10.14l5,17.74C230.05,535.8,226,533.59,225.33,529.81Z" transform="translate(-66.13 -119.92)"/><path class="cls-1" d="M307.55,446.46c21.37,1.64,44.36-8.95,65.94-8.47,10.28,1.34,23.35-.75,29.5,10.3,7.69,17.21,4.74,35.27,2.66,52-26.47-12.45-58.52-11.78-86.83.06-21.85,5-39.93-8.94-61.63-4.83-6.52.82-12.86,3.17-19.06,5,2.24-17.69-1.41-36.47-4.61-55.22,25.42-7.84,50.62-5.38,74,1.08" transform="translate(-66.13 -119.92)"/><path class="cls-2" d="M339.41,481.47l-1.47,2.18c-1.82-.21-1.42-2.73-1.56-4,.64-1.25.54-2.9,1.92-3.83,2.23,1.12.39,3.7,1.11,5.68m4.23-9.87h0c-.69-2.45-1.35-4.91-1.87-7.41-.34-1.63-.6-3.28-.78-5a5.6,5.6,0,0,0-3.51-2h0a19.47,19.47,0,0,0-5.4.26,6.79,6.79,0,0,0-1.62,1.1c-2.19,2-2.63,5.19-2.56,8.27,0,.9.09,1.8.17,2.65.38,1.38,2.52,1,3.51.32,1.1-1,.09-2.61.67-3.81h0a1.78,1.78,0,0,1,.58-.66,2.9,2.9,0,0,1,3.17-.08c.24.11.45.23.67.34,1.44,4.12-2.62,5.69-5.09,8.31a6.51,6.51,0,0,0-1.29,1.84c-1.59,4.42-.27,10.07,2.48,13.87,3.62,3.75,7.06-2,11.08-.81,1,.24,3,.53,3.5-.91C346.82,482.27,345.16,477,343.64,471.6Z" transform="translate(-66.13 -119.92)"/><path class="cls-2" d="M376.2,488.59a13.91,13.91,0,0,1-4.53-3.26c-.92-3-2.14-7,.61-9.47,5.71-2.11,2.43,9.66,8.18,4.87-.59-5.93-4.67-10.27-8.44-14.65h0a36.36,36.36,0,0,1-5-6.8,14,14,0,0,1-1.73-7.44,15.53,15.53,0,0,1,.74-3.94c2.15-3.87,7.4-3.78,11.08-3.16a16.65,16.65,0,0,1,2.52,4.31,10.26,10.26,0,0,1,.6,6,3.33,3.33,0,0,1-2.65,1.29c-2.17-1.47-1.86-6.76-5.54-5a3.22,3.22,0,0,0-1.08,1.33,17.31,17.31,0,0,0,2,5.49,40.22,40.22,0,0,0,5.14,6.78c5,5.58,10.18,10.84,7.81,19.56a7.65,7.65,0,0,1-2.58,2.74,12.17,12.17,0,0,1-6.46,1.69l-.73-.29" transform="translate(-66.13 -119.92)"/><path class="cls-2" d="M392.25,485.48c2,3.45,4.34,6.89,9,5.91a11,11,0,0,0,3.87-8.41h0a32.32,32.32,0,0,0-.93-8,3.44,3.44,0,0,0-3.47-1.21,2.74,2.74,0,0,0-.29,2.5c-.54,1.22-.83,3.17-2.61,3.19a11.55,11.55,0,0,1-2.5-2,35.8,35.8,0,0,1-4.74-15h0a18,18,0,0,1,1.16-8,11,11,0,0,1,.72-1.46c1.51-.48,2.32,0,2.85.76,1.12,1.68,1.05,4.9,4,4.24,1.35-1.48,1.34-3.3.85-5.18-.53-2.07-1.62-4.21-2-6.06a4.34,4.34,0,0,0-1-1.13,18.14,18.14,0,0,0-3.83-1.94c-2.27-.78-4.52.77-6,2.29a18,18,0,0,0-.69,1.71,29.52,29.52,0,0,0-1.71,8.09,43.73,43.73,0,0,0,.12,7.75h0a62.2,62.2,0,0,0,5,18.22c.76,1.07,1.47,2.39,2.23,3.71" transform="translate(-66.13 -119.92)"/><path class="cls-2" d="M242.59,475.69c.55,2.49,1.09,5,1.58,7.47q.51,2.58.93,5.18l1.1,2.2.73,1.45c1.69-.45,4.11.53,5.29-1.37l-.23-1.21h0l-1.46-7.49-1.45-7.49-1.11-5.7,1.45-2.14,0,0c1.08-.29,2.67-1.17,3.89-.72h0a1.92,1.92,0,0,1,.89.69c.49,2.21,1,4.41,1.5,6.62q.86,3.71,1.68,7.45c.54,2.47,1.07,5,1.56,7.47.05.23.09.45.13.67l2.18,1.47c1.25-.46,3.09-.15,4-1.33-.12-.66-.24-1.31-.35-2-.45-2.5-.88-5-1.31-7.52l-1.29-7.52q-.65-3.75-1.32-7.52c-1.06-6-2.18-12-3.46-18.06l-.79-1.19c-2,.51-4.53-.45-5.83,1.48-.17,4.26,2.65,9.06.83,12.86-1.44,1.18-3.14.5-4.48-.13l-2.15-11.05c-2-2.17-5-.48-6.86.78A108.62,108.62,0,0,0,241,468.24h0q.8,3.72,1.64,7.45" transform="translate(-66.13 -119.92)"/><path class="cls-2" d="M270.86,462.42a3.65,3.65,0,0,0,0-.81l.67.68.44.44c0,1.57.26,3.07-.22,4.61-1.85-1.17-1-3.25-.89-4.92m8.47,15.25a5.11,5.11,0,0,0-2-.95,1,1,0,0,0-.76.14h0c-1.24.93.15,5.46-1.91,6.51-2.26-.85-2.85-3.17-3.3-5.49-.06-.29-.11-.57-.17-.85.38-3.19,4.77-1.26,6-3.5a33.9,33.9,0,0,0,.38-4.64,27,27,0,0,0-.92-7.59,15,15,0,0,0-4.25-7.22c-1.93-.74-4.07-.33-6.09.18a5.58,5.58,0,0,0-1.71,2.67c0,2.21,0,4.45.12,6.69.13,2.53.34,5.08.65,7.64s.68,5,1.15,7.56c.06.32.12.65.19,1,.89,1.92,1.22,4.34,2,6.36a5.65,5.65,0,0,0,4.2,3.9,10,10,0,0,0,6.62-2.06,37.54,37.54,0,0,0,.71-4.07h0A11.44,11.44,0,0,0,279.33,477.67Z" transform="translate(-66.13 -119.92)"/><path class="cls-2" d="M289.28,482.17c-.82-2.45-1.85-4.86-2.59-7.28a17.25,17.25,0,0,1-.81-7.61h0a13,13,0,0,1,.78-2.84c2.14-.06,2.84.83,3.07,2.09.34,1.92-.42,4.71,1.22,6.21,4.75-1.15,2.12-3.83.88-6.62-.62-1.39-.89-2.8.27-4.07a9.53,9.53,0,0,0-.56-3.65h0a3.24,3.24,0,0,0-1.83-1.78,4.59,4.59,0,0,0-3,1.35c-2,3.4-3.81-1.27-6.19-.35a4.23,4.23,0,0,0-1.5,3.21,24.48,24.48,0,0,0,.59,4.75,24.91,24.91,0,0,1,1.08,2.7,47.75,47.75,0,0,1,1.7,7.45c.4,2.5.74,5,1.22,7.53a33,33,0,0,0,2.2,7.29c1.21,1.09,3.17,2.61,4.58,1.23a18.88,18.88,0,0,0-1.14-9.61" transform="translate(-66.13 -119.92)"/><path class="cls-2" d="M301,456.57c-.69-2.75-1.17-5.56-2.66-7.75a1.77,1.77,0,0,0-2.25-.68c-1.86,2.76-.34,6.14.22,9.34a10.25,10.25,0,0,1,.17,2.39c-.65,1.79-2.71,1.53-3.36,3.32a2.48,2.48,0,0,0,.39,2.61c.84.95,2.4,1.47,3.55,2.2.32,1.53.56,3.11.77,4.73.33,2.5.58,5.06.9,7.6.78,6.18,1.94,12.23,5.55,16.77,1.86,1,4.14.09,6.15.14,2-1.28-.29-3.17-.36-4.72a32.76,32.76,0,0,1-6-13.22h0a45.35,45.35,0,0,1-1.05-7.57c0-.74-.06-1.47-.06-2.2.6-2.12,4.07-2,3.93-4.44a3.46,3.46,0,0,0,0-1.89c-.67-2.18-4-2.37-5.28-4.55-.23-.68-.41-1.38-.59-2.08" transform="translate(-66.13 -119.92)"/><path class="cls-2" d="M311.3,477.89l3.22,17,1.53,1a19.58,19.58,0,0,0,2.73-.87c2-5.61-.2-12-1.76-18.28h0A41.35,41.35,0,0,1,315.8,470c.2-.28.38-.6.59-.9h0c.45-.66,1-1.2,1.73-.88a4.49,4.49,0,0,1,.41.46h0A7.79,7.79,0,0,1,320,474q.29,1,.48,2.1c1.13,6.14.48,13.23,5,17.44,1.23,0,3.18.28,3.77-1.29-1.45-5.41-2.52-11.28-3.65-17.14-.48-2.5-1-5-1.51-7.48-.35-1.57-.71-3.14-1.1-4.67-2.58-1.84-5.93.37-8.7-.65l-.15-.52c-.7-2.5-.67-5.14-1.11-7.55h0a9.61,9.61,0,0,0-1.67-4.17,2.8,2.8,0,0,0-3.1-1.06c-1.44.61-1.45,2.29-1.76,3.57l.54,2.82,1.41,7.49,1.42,7.5" transform="translate(-66.13 -119.92)"/><path class="cls-2" d="M359.83,479.39a2.69,2.69,0,0,1-2.42-.41c-.45-3.32-2.31-7.44.11-10.08a5.25,5.25,0,0,1,1-.83,2,2,0,0,1,1.67.31c.28.16.56.35.83.54,1.35,3.52,1.83,7.66-1.19,10.47m-4.93-17.3c-.12-.12-.25-.25-.36-.38-1.63-1.9-1.74-4.84-1.63-7.46,0-.67.07-1.32.1-1.93.47-1,1.93-.93,2.74-.75.13.65.29,1.34.44,2,.59,2.76,1.09,5.75-.74,7.92A4.82,4.82,0,0,1,354.9,462.09ZM369,469.61a19.13,19.13,0,0,0-1.47-2.65h0a8.68,8.68,0,0,0-5.5-4c.19-.92.37-1.85.52-2.79a31.13,31.13,0,0,0,.38-7.85,20.12,20.12,0,0,0-1.44-5.85,6,6,0,0,0-1.39-1.37h0c-4.2-2.91-10.14,2.08-14.87,1.3-.06.52-.11,1.07-.14,1.61a7.27,7.27,0,0,0,.65,3.86c.51,1.16,1,2.35,1.36,3.53a54.34,54.34,0,0,1,1.88,7.41c.46,2.49.8,5,1.09,7.56a166.52,166.52,0,0,0,2.38,17.16c3.48,1.33,8.36,0,12.38-1.07C368.82,481.54,369.56,475.61,369,469.61Z" transform="translate(-66.13 -119.92)"/><path class="cls-2" d="M301.72,379.79c24.46-.75,49.91-6.14,73.89-4.79,3,.19,6,.4,9,.69,9.52,15.19,16.28,36.81,13.64,55.25-24.05-4-50.9-1.24-76.22,6.58-15.92,1.76-29.85-5.78-45.28-6.12-13.75.33-28.34-.28-41.81,4.9-5.91-20.68-12.53-41-25.24-57.12l-3.22-2.82c33-10.86,64.51-2.63,95.2,3.43" transform="translate(-66.13 -119.92)"/><polyline class="cls-1" points="57.1 235.16 47.99 229.24 44.01 235.38 67.61 250.71 71.59 244.57 61.92 238.29 67.67 229.43 77.35 235.71 81.33 229.58 57.73 214.25 53.75 220.38 62.85 226.3"/><polyline class="cls-1" points="89.06 186.65 84.6 182.35 73.49 193.87 93.73 213.41 104.85 201.89 100.39 197.59 94.35 203.85 90.86 200.48 96.59 194.54 92.13 190.24 86.41 196.17 83.02 192.91"/><path class="cls-1" d="M180.32,285.34l.6-.38c2-1.27,4.54-2.31,6.16.29s-.41,4.4-2.44,5.66l-.6.38m8.26-.45c3-2.72,3.06-6.71,1-10-3.18-5.1-8.16-5.11-12.87-2.17l-9.28,5.79,14.91,23.87,6.2-3.87-5.73-9.18.06,0,11.59,5.52,7.73-4.83Z" transform="translate(-66.13 -119.92)"/><polyline class="cls-1" points="159.13 144.12 164.78 141.96 162.56 136.18 144.44 143.13 146.66 148.92 152.31 146.75 160.17 167.23 167 164.62"/><polyline class="cls-1" points="195.61 139.7 194.29 128.92 187.03 129.81 190.46 157.74 197.72 156.85 196.31 145.4 206.8 144.12 208.2 155.56 215.47 154.67 212.03 126.74 204.77 127.64 206.09 138.41"/><path class="cls-1" d="M318.55,266.47l-6-.75,4.09-8.52h.08m3.15,15.05,1.22,5.08,7.74,1-7.09-29.22-7.93-1L299.6,274.71l7.7.94,2.53-4.61Z" transform="translate(-66.13 -119.92)"/><path class="cls-1" d="M390.89,279.45l.44.28c1.66,1.09,3.49,2.45,2.09,4.61-1.31,2-3.18,1.19-4.81.12l-.68-.44m-6,16.49c4.32,2.8,9.61,3.92,12.82-1,2.13-3.29,2.18-6.5-.92-9.14l0-.06c2.54.26,4.35-1,5.73-3.14,2.92-4.51,1.17-8-3-10.69l-8.76-5.69-15.33,23.6Zm3-11.92.62.41c2,1.3,5.22,3,3.38,5.84-1.69,2.6-4.69.51-6.52-.67l-.77-.51Z" transform="translate(-66.13 -119.92)"/><path class="cls-1" d="M438.12,311.87a19.21,19.21,0,0,0-4.73-7.77c-4.05-3.92-9.57-4.06-13.54,0-3.78,3.93-2.44,6.88,0,11,.81,1.41,2.39,3.91,1,5.39s-3.29.77-4.52-.43a10,10,0,0,1-2.65-6.6l-6.35,2.06a17.42,17.42,0,0,0,4.88,9.18,12.26,12.26,0,0,0,7.59,3.64c2.93.19,5.41-1.41,7.36-3.43,3.16-3.27,2.36-6.79.34-10.34l-.95-1.71c-.63-1.17-1.61-3-.47-4.18s2.92-.45,3.89.48a7.67,7.67,0,0,1,2.19,4.71" transform="translate(-66.13 -119.92)"/><path class="cls-1" d="M467.06,348.89a17.12,17.12,0,0,0-2.44-6.38A15.29,15.29,0,0,0,455,336a14.71,14.71,0,0,0-10.9,2.14,13.74,13.74,0,0,0-6.46,9.58,15.62,15.62,0,0,0,2.28,11.11,20.26,20.26,0,0,0,4.61,4.7l7.36-4.77a8.44,8.44,0,0,1-5.95-3.66,7.31,7.31,0,0,1,2.28-10.56c3.65-2.37,8.18-1.71,10.62,2a8,8,0,0,1,.9,7.08" transform="translate(-66.13 -119.92)"/><path class="cls-1" d="M190.13,601.07l.44.28c1.65,1.08,3.49,2.45,2.08,4.6s-3.17,1.2-4.8.14l-.69-.45m-6,16.49c4.32,2.81,9.6,3.92,12.81-1,2.14-3.28,2.18-6.5-.91-9.14l0-.06c2.53.27,4.34-1,5.72-3.13,2.93-4.51,1.17-8-3-10.69L187,592.39,171.72,616Zm3-11.92.63.4c2,1.31,5.22,3,3.37,5.85-1.68,2.6-4.69.51-6.51-.68l-.78-.5Z" transform="translate(-66.13 -119.92)"/><polyline class="cls-1" points="171.04 505.73 173.05 499.87 157.91 494.66 148.75 521.26 163.89 526.48 165.91 520.62 157.68 517.79 159.27 513.2 167.06 515.89 169.08 510.03 161.28 507.35 162.81 502.9"/><path class="cls-1" d="M268.27,632.54l.7.08c2.37.3,5,1.07,4.61,4.11s-3.09,3.16-5.47,2.86l-.7-.09m6.7,4.85c4.05-.22,6.61-3.28,7.08-7.14.73-6-3.13-9.11-8.65-9.79l-10.85-1.33L258.26,654l7.26.89,1.32-10.74h.07l5.54,11.58,9,1.11Z" transform="translate(-66.13 -119.92)"/><polyline class="cls-1" points="246.07 507.65 238.82 508.54 242.25 536.47 258.21 534.51 257.46 528.36 248.75 529.43"/><polyline class="cls-1" points="283.49 499.09 276.46 501.11 284.22 528.15 291.25 526.13"/><polyline class="cls-1" points="319.47 515.2 325.8 511.55 317.18 496.61 317.25 496.57 337.47 504.81 343.81 501.15 329.74 476.78 323.4 480.44 332 495.34 331.94 495.38 311.73 487.17 305.4 490.83"/><path class="cls-1" d="M478.34,441.92h.71c2.39,0,5.08.46,5.06,3.53s-2.7,3.5-5.09,3.48h-.7m7.22,4c4-.69,6.17-4,6.19-7.92,0-6-4.19-8.68-9.74-8.7l-10.94,0-.11,28.14,7.31,0,.05-10.82h.07l6.86,10.84,9.11,0Z" transform="translate(-66.13 -119.92)"/><path class="cls-1" d="M111.65,435.73v20.21a11.5,11.5,0,0,1-1,4.68,12.56,12.56,0,0,1-2.59,3.79A12.07,12.07,0,0,1,104.3,467a11.63,11.63,0,0,1-4.63.92h-.13a11.85,11.85,0,0,1-4.61-1,12.32,12.32,0,0,1-3.88-2.64,12.05,12.05,0,0,1-2.56-3.9,11.63,11.63,0,0,1-.84-4.64l7.28.09a4.75,4.75,0,0,0,1.33,3.36,4.59,4.59,0,0,0,3.36,1.42,4.78,4.78,0,0,0,1.81-.34,4.4,4.4,0,0,0,1.51-1,5.15,5.15,0,0,0,1-1.51,4.6,4.6,0,0,0,.38-1.85V435.73Z" transform="translate(-66.13 -119.92)"/></g><g id="Capa_4" data-name="Capa 4"><polygon class="cls-5" points="59.25 64.22 92.45 64.22 102.71 32.68 113.29 64.22 146.67 64.22 119.58 84 129.87 115.89 102.96 96.21 75.65 115.89 86 83.89 59 64.26 59.25 64.22"/><polygon class="cls-6" points="75.65 115.89 102.83 78.49 86 83.89 75.65 115.89"/><polygon class="cls-6" points="102.71 32.68 102.83 78.49 92.45 64.22 102.71 32.68"/><polygon class="cls-6" points="129.87 115.89 119.58 84 102.83 78.49 129.87 115.89"/><polygon class="cls-6" points="113.29 64.22 102.83 78.49 146.67 64.22 113.29 64.22"/><polygon class="cls-7" points="59 64.26 102.83 78.49 86 83.89 59 64.26"/><polygon class="cls-7" points="102.83 78.49 129.87 115.89 102.96 96.21 102.83 78.49"/></g><g id="Capa_3" data-name="Capa 3"><polygon class="cls-5" points="303.98 64.2 337.18 64.2 347.44 32.66 358.02 64.2 391.4 64.2 364.31 83.98 374.6 115.88 347.69 96.19 320.38 115.88 330.73 83.87 303.73 64.24 303.98 64.2"/><polygon class="cls-6" points="320.38 115.88 347.57 78.47 330.73 83.87 320.38 115.88"/><polygon class="cls-6" points="347.44 32.66 347.57 78.47 337.18 64.2 347.44 32.66"/><polygon class="cls-6" points="374.6 115.88 364.31 83.98 347.57 78.47 374.6 115.88"/><polygon class="cls-6" points="358.02 64.2 347.57 78.47 391.4 64.2 358.02 64.2"/><polygon class="cls-7" points="303.73 64.24 347.57 78.47 330.73 83.87 303.73 64.24"/><polygon class="cls-7" points="347.57 78.47 374.6 115.88 347.69 96.19 347.57 78.47"/></g><g id="Capa_3_copia" data-name="Capa 3 copia"><polygon class="cls-5" points="180.9 31.54 214.1 31.54 224.36 0 234.94 31.54 268.33 31.54 241.23 51.32 251.53 83.22 224.62 63.53 197.3 83.22 207.65 51.21 180.66 31.58 180.9 31.54"/><polygon class="cls-6" points="197.3 83.22 224.49 45.81 207.65 51.21 197.3 83.22"/><polygon class="cls-6" points="224.36 0 224.49 45.81 214.1 31.54 224.36 0"/><polygon class="cls-6" points="251.53 83.22 241.23 51.32 224.49 45.81 251.53 83.22"/><polygon class="cls-6" points="234.94 31.54 224.49 45.81 268.33 31.54 234.94 31.54"/><polygon class="cls-7" points="180.66 31.58 224.49 45.81 207.65 51.21 180.66 31.58"/><polygon class="cls-7" points="224.49 45.81 251.53 83.22 224.62 63.53 224.49 45.81"/></g></svg>