<?xml version="1.0" encoding="utf-8"?>
<!-- Generator: Adobe Illustrator 24.1.1, SVG Export Plug-In . SVG Version: 6.00 Build 0)  -->
<svg version="1.1" id="Layer_1" xmlns="http://www.w3.org/2000/svg" xmlns:xlink="http://www.w3.org/1999/xlink" x="0px" y="0px"
	 viewBox="0 0 396 617" style="enable-background:new 0 0 396 617;" xml:space="preserve">
<style type="text/css">
	.st0{fill:#FFFFFF;}
	.st1{fill:none;stroke:#1E2652;stroke-width:9.8975;}
	.st2{fill:#005EAA;}
	.st3{fill:#1E2652;}
	.st4{fill:#AC7559;}
	.st5{fill:none;stroke:#1E2652;stroke-width:4.9486;}
	.st6{fill:#E42313;}
</style>
<path class="st0" d="M197.42,600.83l189.66-378.3l-57.18-70.38c-38.49,38.49-132.47,38.49-132.47,38.49s-93.98,0-132.47-38.49
	L7.76,222.53L197.42,600.83z"/>
<path class="st1" d="M197.42,600.83l189.66-378.3l-57.18-70.38c-38.49,38.49-132.47,38.49-132.47,38.49s-93.98,0-132.47-38.49
	L7.76,222.53L197.42,600.83z"/>
<polygon class="st2" points="326.39,171.93 160.62,494.16 197.04,564.26 369.53,225.75 "/>
<path class="st0" d="M199.89,466.68l-9.08,17.82l5.88,2.99l8.65-16.97c1.36-2.67,2.74-4.24,4.14-4.71c1.39-0.47,3.34-0.07,5.84,1.2
	l3.71,1.89c2.46,1.26,3.91,2.58,4.34,3.98c0.43,1.4-0.04,3.44-1.4,6.1l-8.56,16.82c-1.37,2.68-2.75,4.27-4.14,4.75
	c-1.39,0.48-3.31,0.1-5.78-1.16l-0.73-0.37l1.73-6.18l3.12,1.59l9.83-19.29l-6.15-3.14L202.63,489c-1.34,2.63-2.71,4.18-4.09,4.63
	c-1.39,0.46-3.33,0.05-5.82-1.22l-3.03-1.54c-2.48-1.27-3.95-2.59-4.39-3.98c-0.44-1.39,0.01-3.4,1.35-6.04l7.87-15.46
	c1.31-2.56,2.65-4.1,4.02-4.63c1.37-0.52,3.18-0.21,5.42,0.93l0.57,0.29l-1.53,6.28L199.89,466.68z"/>
<path class="st0" d="M223.17,456.4l0.49-0.95c0.24-0.46,0.54-0.72,0.9-0.77c0.37-0.05,0.92,0.11,1.68,0.5l4.28,2.18
	c0.83,0.42,1.31,0.8,1.44,1.12c0.13,0.33-0.07,1.02-0.61,2.08l-2.4,4.7c-0.24,0.46-0.54,0.72-0.91,0.77
	c-0.37,0.05-0.93-0.12-1.69-0.5l-4.28-2.18c-0.8-0.41-1.28-0.78-1.41-1.11c-0.13-0.33,0.06-1.02,0.61-2.08L223.17,456.4z"/>
<path class="st0" d="M216.53,434.25l5.75-11.29c1.52-2.97,3.38-4.85,5.59-5.64c2.21-0.79,4.71-0.47,7.5,0.95
	c3.13,1.6,4.91,3.66,5.34,6.18c0.43,2.52-0.48,5.98-2.71,10.36l-4.19,8.23L216.53,434.25z M243.83,436.06
	c1.4-2.75,2.39-5.09,2.95-7.03c0.56-1.94,0.77-3.69,0.64-5.25c-0.19-2.5-1.04-4.8-2.55-6.89c-1.5-2.09-3.53-3.78-6.08-5.08
	c-4.3-2.19-8.31-2.54-12.02-1.04c-3.71,1.5-6.84,4.75-9.39,9.76l-8.96,17.57l27.28,13.9L243.83,436.06z"/>
<path class="st0" d="M249.55,404.64l0.48-0.95c0.24-0.46,0.54-0.72,0.9-0.77c0.36-0.05,0.92,0.11,1.68,0.5l4.28,2.18
	c0.82,0.42,1.31,0.8,1.44,1.12c0.14,0.33-0.07,1.02-0.61,2.09l-2.4,4.7c-0.24,0.46-0.54,0.72-0.91,0.77
	c-0.37,0.05-0.93-0.12-1.69-0.51l-4.28-2.18c-0.81-0.41-1.28-0.78-1.41-1.11c-0.14-0.33,0.07-1.02,0.6-2.09L249.55,404.64z"/>
<path class="st0" d="M269.82,385.05l-27.28-13.9l14.23-27.92l4.69,2.38l-11,21.59l6.06,3.09l6.42-12.59l4.68,2.39l-6.41,12.59
	l6.71,3.42l11.14-21.86l5.14,2.62L269.82,385.05z"/>
<path class="st0" d="M287.48,350.4l-27.28-13.9l3.23-6.34l27.29,13.9L287.48,350.4z"/>
<path class="st0" d="M284.47,300.89c0.51-0.27,1.13-0.22,1.83,0.14l2.59,1.32c0.73,0.37,1.13,0.84,1.2,1.41
	c0.08,0.57-0.16,1.41-0.73,2.52l-7.4,14.52l-6.52-3.32l7.41-14.53C283.41,301.85,283.95,301.16,284.47,300.89z M295.66,306.37
	c0.57-0.25,1.32-0.14,2.23,0.33l2.08,1.06c0.92,0.47,1.45,1.01,1.59,1.62c0.15,0.62-0.09,1.53-0.71,2.75l-7.4,14.53l-6.98-3.56
	l7.4-14.53C294.49,307.35,295.08,306.62,295.66,306.37z M306.21,313.65c1.38-2.7,1.97-4.93,1.77-6.71c-0.2-1.77-1.19-3.11-2.99-4.03
	l-3.5-1.79c-1.47-0.75-2.88-0.93-4.23-0.55c-1.35,0.38-2.52,1.29-3.52,2.75c0.58-1.61,0.69-3.02,0.31-4.22
	c-0.37-1.21-1.21-2.14-2.52-2.81l-3.34-1.7c-1.83-0.93-3.41-1.13-4.74-0.59c-1.33,0.54-2.55,1.89-3.65,4.04l-11.94,23.44l27.28,13.9
	L306.21,313.65z"/>
<path class="st0" d="M298.48,274.41l14.07-0.24l-6.09,11.95L298.48,274.41z M314.4,297.58l-4.35-6.22l8.82-17.3l7.64-0.24l3.63-7.13
	l-35.25,1.74l-3.12,6.12l19.42,29.34L314.4,297.58z"/>
<path class="st0" d="M321.39,229.16c0.53-0.24,1.18-0.16,1.98,0.25l3.29,1.68c0.81,0.41,1.28,0.9,1.39,1.47
	c0.11,0.57-0.11,1.4-0.67,2.5l-7.25,14.23l-7.62-3.89l7.25-14.23C320.33,230.07,320.87,229.4,321.39,229.16z M335.12,256.91
	l-10.29-5.24l3.06-6.01l15.89-5.75l4.64-9.11l-16.72,7.38l1.81-3.55c1.11-2.18,1.5-3.98,1.15-5.39c-0.35-1.41-1.44-2.58-3.29-3.53
	l-6.43-3.28c-1.85-0.94-3.43-1.13-4.76-0.58c-1.33,0.56-2.55,1.92-3.66,4.11l-11.86,23.28l27.28,13.9L335.12,256.91z"/>
<path class="st3" d="M281.86,87.43c0,46.66-37.83,84.49-84.49,84.49c-46.66,0-84.49-37.83-84.49-84.49s37.83-84.49,84.49-84.49
	C244.04,2.94,281.86,40.77,281.86,87.43z"/>
<path class="st4" d="M268.34,87.43c0,39.2-31.77,70.97-70.97,70.97c-39.2,0-70.97-31.77-70.97-70.97
	c0-39.19,31.77-70.97,70.97-70.97C236.57,16.46,268.34,48.23,268.34,87.43z"/>
<path class="st5" d="M265.99,52.62c0,0-8.46,22.01-30.31,24.75c-20.87,2.62-17.73,64.34-3.55,75.24"/>
<path class="st5" d="M270.32,96.61c0,0-6.6,17.87-48.91,18.17"/>
<path class="st5" d="M129.61,52.62c0,0,6.95,19.81,27.02,24.75c29.44,7.25,18.43,67.64,6.85,75.24"/>
<path class="st5" d="M125.09,95.85c0,0,5.58,19.17,49.25,19.17"/>
<path class="st5" d="M149.62,74.62c10.53,6.67,25.97-0.55,25.97-0.55c9.07-3.84,22.27-3.8,22.27-3.8h-0.13c0,0,13.2-0.05,22.27,3.8
	c0,0,15.31,6.4,25.84-0.27"/>
<path class="st5" d="M197.86,70.27c0,0,3.27,28.12-0.49,88.13"/>
<polygon class="st6" points="207.9,259.91 179.32,231.34 150.25,260.41 121.18,231.34 92.6,259.91 121.67,288.99 92.6,318.06 
	121.18,346.63 150.25,317.56 179.32,346.63 207.9,318.06 178.83,288.99 "/>
</svg>
