<?xml version="1.0" encoding="utf-8"?>
<!-- Generator: Adobe Illustrator 24.1.1, SVG Export Plug-In . SVG Version: 6.00 Build 0)  -->
<svg version="1.1" id="Capa_1" xmlns="http://www.w3.org/2000/svg" xmlns:xlink="http://www.w3.org/1999/xlink" x="0px" y="0px"
	 viewBox="0 0 451.43 457.01" style="enable-background:new 0 0 451.43 457.01;" xml:space="preserve">
<style type="text/css">
	.st0{fill:#FFFFFF;}
	.st1{fill:#0032BA;}
	.st2{fill:#E5221C;}
	.st3{fill:#010101;}
	.st4{display:none;}
	.st5{display:inline;fill:#E8AC02;}
	.st6{display:inline;fill:#FBE708;}
	.st7{display:inline;fill:#CC8010;}
</style>
<g id="escudo">
	<path class="st0" d="M225.72,5.58C101.26,5.58,0,106.84,0,231.29s101.26,225.72,225.72,225.72s225.71-101.26,225.71-225.72
		S350.18,5.58,225.72,5.58"/>
	<circle class="st1" cx="225.71" cy="231.29" r="214.83"/>
	<path class="st2" d="M225.72,397.74c-91.93,0-166.45-74.52-166.45-166.45S133.79,64.84,225.72,64.84s166.45,74.52,166.45,166.45v0
		C392.17,323.22,317.65,397.74,225.72,397.74"/>
	<path class="st3" d="M225.72,80.27c-83.39,0-151,67.61-151,151s67.61,151,151,151s151-67.6,151-151S309.11,80.27,225.72,80.27
		L225.72,80.27z"/>
	<path class="st0" d="M225.72,371.88c-77.65,0.01-140.59-62.93-140.6-140.58S148.05,90.71,225.7,90.7s140.59,62.93,140.6,140.58
		c0,0,0,0.01,0,0.01C366.31,308.93,303.37,371.88,225.72,371.88C225.73,371.88,225.72,371.88,225.72,371.88"/>
	<path class="st3" d="M341.35,218.86c-0.85-1.51-3.06-2-3.41-3.8c4-14.8-0.11-32-5.32-46.84c-2.93-7-4.75-14.67-10.34-19.92
		c-13.07-3.7-27.14-2.19-41.06-2.16c-16.19,0.92-33.23,6-49,4.73c-31-7.56-62.95-13.37-96.74-3.91c-0.69-0.38-1.13-1.1-1.15-1.89
		c-4.07-3.77-10.7-1.82-15.2,0.28c-2.82,2.2-3.92,5.95-2.74,9.33c1.09,4.47,6.42,5,9.91,5.76l33.47,126.33
		c-6.09,8.2-11.24,17.21-7.27,27.35c3.45,6.24,11.43,10.69,18,13.1l8.15,31c1.26,1.07,2.94,1.52,4.57,1.23
		c1.47-0.27,2.68-1.31,3.15-2.73c-3.09-8.87-5.38-18-6.86-27.28c4,0.34,7.79,1.15,11.4,3.68c7.23,4.5,0.23,13.76,5.95,18.56
		c1.69,0.11,3.84-0.3,4.75-1.93c0.95-5.57,0.7-11.28-0.74-16.74c-4.54-9.58-16.2-10-24.54-13.38l-7.58-28.14c6.42-7,18-7,27.24-9.3
		c19.48-1.79,36.18,10.22,56.26,5.87c30.9-13.46,65.93-13.7,93.05,4.41c1.77-4.69,2.25-9.68,3.29-14.57
		C351.21,259.25,353.63,235.62,341.35,218.86z M152.26,226.22l-14.55-55.41l-0.76-2.75c17.17,28.73,25.92,67.45,27.14,102.39
		L152.26,226.22z M159.2,308.82c-0.28-3.62,0.76-7.23,2.93-10.14l5,17.74C163.92,314.81,159.87,312.6,159.2,308.82L159.2,308.82z"/>
	<path class="st0" d="M241.42,225.47c21.37,1.64,44.36-8.95,65.94-8.47c10.28,1.34,23.35-0.75,29.5,10.3
		c7.69,17.21,4.74,35.27,2.66,52c-26.47-12.45-58.52-11.78-86.83,0.06c-21.85,5-39.93-8.94-61.63-4.83
		c-6.52,0.82-12.86,3.17-19.06,5c2.24-17.69-1.41-36.47-4.61-55.22c25.42-7.84,50.62-5.38,74,1.08"/>
	<path class="st1" d="M273.28,260.48l-1.47,2.18c-1.82-0.21-1.42-2.73-1.56-4c0.64-1.25,0.54-2.9,1.92-3.83
		c2.23,1.12,0.39,3.7,1.11,5.68 M277.51,250.64L277.51,250.64c-0.69-2.45-1.35-4.91-1.87-7.41c-0.34-1.63-0.6-3.28-0.78-5
		c-0.88-1.08-2.13-1.79-3.51-2l0,0c-1.8-0.16-3.62-0.08-5.4,0.26c-0.59,0.29-1.14,0.66-1.62,1.1c-2.19,2-2.63,5.19-2.56,8.27
		c0,0.9,0.09,1.8,0.17,2.65c0.38,1.38,2.52,1,3.51,0.32c1.1-1,0.09-2.61,0.67-3.81l0,0c0.14-0.27,0.33-0.49,0.58-0.66
		c0.95-0.65,2.19-0.68,3.17-0.08c0.24,0.11,0.45,0.23,0.67,0.34c1.44,4.12-2.62,5.69-5.09,8.31c-0.53,0.53-0.97,1.16-1.29,1.84
		c-1.59,4.42-0.27,10.07,2.48,13.87c3.62,3.75,7.06-2,11.08-0.81c1,0.24,3,0.53,3.5-0.91c-0.53-5.64-2.19-10.91-3.71-16.31V250.64z"
		/>
	<path class="st1" d="M310.07,267.6c-1.71-0.77-3.26-1.88-4.53-3.26c-0.92-3-2.14-7,0.61-9.47c5.71-2.11,2.43,9.66,8.18,4.87
		c-0.59-5.93-4.67-10.27-8.44-14.65l0,0c-1.92-2.06-3.6-4.35-5-6.8c-1.26-2.27-1.85-4.85-1.73-7.44c0.08-1.34,0.32-2.66,0.74-3.94
		c2.15-3.87,7.4-3.78,11.08-3.16c1.05,1.3,1.9,2.75,2.52,4.31c0.8,1.89,1.01,3.99,0.6,6c-0.63,0.82-1.61,1.3-2.65,1.29
		c-2.17-1.47-1.86-6.76-5.54-5c-0.47,0.34-0.85,0.8-1.08,1.33c0.35,1.93,1.03,3.79,2,5.49c1.47,2.44,3.19,4.71,5.14,6.78
		c5,5.58,10.18,10.84,7.81,19.56c-0.62,1.11-1.51,2.06-2.58,2.74c-1.95,1.15-4.19,1.74-6.46,1.69l-0.73-0.29"/>
	<path class="st1" d="M326.12,264.49c2,3.45,4.34,6.89,9,5.91c2.46-2.1,3.88-5.17,3.87-8.41l0,0c0.02-2.7-0.29-5.38-0.93-8
		c-0.83-1.04-2.18-1.51-3.47-1.21c-0.5,0.74-0.6,1.67-0.29,2.5c-0.54,1.22-0.83,3.17-2.61,3.19c-0.92-0.55-1.76-1.22-2.5-2
		c-2.67-4.59-4.29-9.71-4.74-15l0,0c-0.22-2.72,0.17-5.46,1.16-8c0.2-0.5,0.44-0.99,0.72-1.46c1.51-0.48,2.32,0,2.85,0.76
		c1.12,1.68,1.05,4.9,4,4.24c1.35-1.48,1.34-3.3,0.85-5.18c-0.53-2.07-1.62-4.21-2-6.06c-0.26-0.43-0.6-0.81-1-1.13
		c-1.2-0.8-2.48-1.45-3.83-1.94c-2.27-0.78-4.52,0.77-6,2.29c-0.26,0.56-0.49,1.13-0.69,1.71c-0.95,2.6-1.52,5.33-1.71,8.09
		c-0.19,2.58-0.15,5.18,0.12,7.75l0,0c0.73,6.29,2.42,12.44,5,18.22c0.76,1.07,1.47,2.39,2.23,3.71"/>
	<path class="st1" d="M176.46,254.7c0.55,2.49,1.09,5,1.58,7.47c0.34,1.72,0.65,3.45,0.93,5.18l1.1,2.2l0.73,1.45
		c1.69-0.45,4.11,0.53,5.29-1.37l-0.23-1.21l0,0l-1.46-7.49l-1.45-7.49l-1.11-5.7l1.45-2.14l0,0c1.08-0.29,2.67-1.17,3.89-0.72l0,0
		c0.36,0.14,0.67,0.38,0.89,0.69c0.49,2.21,1,4.41,1.5,6.62c0.57,2.47,1.13,4.96,1.68,7.45c0.54,2.47,1.07,5,1.56,7.47
		c0.05,0.23,0.09,0.45,0.13,0.67l2.18,1.47c1.25-0.46,3.09-0.15,4-1.33c-0.12-0.66-0.24-1.31-0.35-2c-0.45-2.5-0.88-5-1.31-7.52
		l-1.29-7.52c-0.43-2.5-0.87-5.01-1.32-7.52c-1.06-6-2.18-12-3.46-18.06l-0.79-1.19c-2,0.51-4.53-0.45-5.83,1.48
		c-0.17,4.26,2.65,9.06,0.83,12.86c-1.44,1.18-3.14,0.5-4.48-0.13l-2.15-11.05c-2-2.17-5-0.48-6.86,0.78
		c0.35,6.47,1.27,12.9,2.76,19.2l0,0c0.53,2.48,1.08,4.96,1.64,7.45"/>
	<path class="st1" d="M204.73,241.43c0.03-0.27,0.03-0.54,0-0.81l0.67,0.68l0.44,0.44c0,1.57,0.26,3.07-0.22,4.61
		C203.77,245.18,204.62,243.1,204.73,241.43 M213.2,256.68c-0.59-0.46-1.27-0.78-2-0.95c-0.26-0.06-0.54-0.01-0.76,0.14l0,0
		c-1.24,0.93,0.15,5.46-1.91,6.51c-2.26-0.85-2.85-3.17-3.3-5.49c-0.06-0.29-0.11-0.57-0.17-0.85c0.38-3.19,4.77-1.26,6-3.5
		c0.23-1.54,0.36-3.09,0.38-4.64c0.05-2.56-0.25-5.12-0.92-7.59c-0.7-2.76-2.18-5.27-4.25-7.22c-1.93-0.74-4.07-0.33-6.09,0.18
		c-0.82,0.71-1.41,1.63-1.71,2.67c0,2.21,0,4.45,0.12,6.69c0.13,2.53,0.34,5.08,0.65,7.64s0.68,5,1.15,7.56
		c0.06,0.32,0.12,0.65,0.19,1c0.89,1.92,1.22,4.34,2,6.36c0.59,1.97,2.2,3.46,4.2,3.9c2.38,0.12,4.73-0.61,6.62-2.06
		c0.31-1.34,0.55-2.7,0.71-4.07l0,0C214.4,260.82,214.09,258.65,213.2,256.68L213.2,256.68z"/>
	<path class="st1" d="M223.15,261.18c-0.82-2.45-1.85-4.86-2.59-7.28c-0.84-2.44-1.11-5.04-0.81-7.61l0,0
		c0.15-0.97,0.41-1.93,0.78-2.84c2.14-0.06,2.84,0.83,3.07,2.09c0.34,1.92-0.42,4.71,1.22,6.21c4.75-1.15,2.12-3.83,0.88-6.62
		c-0.62-1.39-0.89-2.8,0.27-4.07c0.05-1.24-0.14-2.48-0.56-3.65l0,0c-0.34-0.82-1-1.46-1.83-1.78c-1.13,0.06-2.2,0.54-3,1.35
		c-2,3.4-3.81-1.27-6.19-0.35c-0.95,0.8-1.49,1.97-1.5,3.21c0.04,1.6,0.24,3.19,0.59,4.75c0.41,0.88,0.77,1.78,1.08,2.7
		c0.76,2.43,1.33,4.93,1.7,7.45c0.4,2.5,0.74,5,1.22,7.53c0.45,2.51,1.19,4.95,2.2,7.29c1.21,1.09,3.17,2.61,4.58,1.23
		c0.46-3.25,0.07-6.56-1.14-9.61"/>
	<path class="st1" d="M234.87,235.58c-0.69-2.75-1.17-5.56-2.66-7.75c-0.47-0.76-1.44-1.06-2.25-0.68
		c-1.86,2.76-0.34,6.14,0.22,9.34c0.15,0.79,0.21,1.59,0.17,2.39c-0.65,1.79-2.71,1.53-3.36,3.32c-0.38,0.87-0.23,1.89,0.39,2.61
		c0.84,0.95,2.4,1.47,3.55,2.2c0.32,1.53,0.56,3.11,0.77,4.73c0.33,2.5,0.58,5.06,0.9,7.6c0.78,6.18,1.94,12.23,5.55,16.77
		c1.86,1,4.14,0.09,6.15,0.14c2-1.28-0.29-3.17-0.36-4.72c-2.96-3.9-5.01-8.42-6-13.22l0,0c-0.56-2.49-0.91-5.02-1.05-7.57
		c0-0.74-0.06-1.47-0.06-2.2c0.6-2.12,4.07-2,3.93-4.44c0.18-0.62,0.18-1.27,0-1.89c-0.67-2.18-4-2.37-5.28-4.55
		c-0.23-0.68-0.41-1.38-0.59-2.08"/>
	<path class="st1" d="M245.17,256.9l3.22,17l1.53,1c0.93-0.22,1.84-0.51,2.73-0.87c2-5.61-0.2-12-1.76-18.28l0,0
		c-0.59-2.21-1-4.46-1.22-6.74c0.2-0.28,0.38-0.6,0.59-0.9l0,0c0.45-0.66,1-1.2,1.73-0.88c0.15,0.14,0.28,0.3,0.41,0.46l0,0
		c1.12,1.53,1.65,3.43,1.47,5.32c0.19,0.67,0.35,1.37,0.48,2.1c1.13,6.14,0.48,13.23,5,17.44c1.23,0,3.18,0.28,3.77-1.29
		c-1.45-5.41-2.52-11.28-3.65-17.14c-0.48-2.5-1-5-1.51-7.48c-0.35-1.57-0.71-3.14-1.1-4.67c-2.58-1.84-5.93,0.37-8.7-0.65
		l-0.15-0.52c-0.7-2.5-0.67-5.14-1.11-7.55l0,0c-0.22-1.5-0.79-2.93-1.67-4.17c-0.7-0.98-1.95-1.41-3.1-1.06
		c-1.44,0.61-1.45,2.29-1.76,3.57l0.54,2.82l1.41,7.49l1.42,7.5"/>
	<path class="st1" d="M293.7,258.4c-0.83,0.26-1.73,0.11-2.42-0.41c-0.45-3.32-2.31-7.44,0.11-10.08c0.3-0.32,0.63-0.6,1-0.83
		c0.58-0.15,1.19-0.04,1.67,0.31c0.28,0.16,0.56,0.35,0.83,0.54C296.24,251.45,296.72,255.59,293.7,258.4 M288.77,241.1
		c-0.12-0.12-0.25-0.25-0.36-0.38c-1.63-1.9-1.74-4.84-1.63-7.46c0-0.67,0.07-1.32,0.1-1.93c0.47-1,1.93-0.93,2.74-0.75
		c0.13,0.65,0.29,1.34,0.44,2c0.59,2.76,1.09,5.75-0.74,7.92C289.15,240.72,288.97,240.92,288.77,241.1L288.77,241.1z
		 M302.87,248.62c-0.42-0.92-0.91-1.81-1.47-2.65l0,0c-1.21-2.03-3.2-3.47-5.5-4c0.19-0.92,0.37-1.85,0.52-2.79
		c0.46-2.59,0.59-5.23,0.38-7.85c-0.18-2.01-0.67-3.98-1.44-5.85c-0.39-0.53-0.86-0.99-1.39-1.37l0,0
		c-4.2-2.91-10.14,2.08-14.87,1.3c-0.06,0.52-0.11,1.07-0.14,1.61c-0.14,1.32,0.08,2.66,0.65,3.86c0.51,1.16,1,2.35,1.36,3.53
		c0.8,2.42,1.43,4.9,1.88,7.41c0.46,2.49,0.8,5,1.09,7.56c0.5,5.76,1.29,11.49,2.38,17.16c3.48,1.33,8.36,0,12.38-1.07
		C302.69,260.55,303.43,254.62,302.87,248.62z"/>
	<path class="st1" d="M235.59,158.8c24.46-0.75,49.91-6.14,73.89-4.79c3,0.19,6,0.4,9,0.69c9.52,15.19,16.28,36.81,13.64,55.25
		c-24.05-4-50.9-1.24-76.22,6.58c-15.92,1.76-29.85-5.78-45.28-6.12c-13.75,0.33-28.34-0.28-41.81,4.9
		c-5.91-20.68-12.53-41-25.24-57.12l-3.22-2.82c33-10.86,64.51-2.63,95.2,3.43"/>
	<polyline class="st0" points="57.1,134.09 47.99,128.17 44.01,134.31 67.61,149.64 71.59,143.5 61.92,137.22 67.67,128.36 
		77.35,134.64 81.33,128.51 57.73,113.18 53.75,119.31 62.85,125.23 	"/>
	<polyline class="st0" points="89.06,85.58 84.6,81.28 73.49,92.8 93.73,112.34 104.85,100.82 100.39,96.52 94.35,102.78 
		90.86,99.41 96.59,93.47 92.13,89.17 86.41,95.1 83.02,91.84 	"/>
	<path class="st0" d="M114.19,64.35l0.6-0.38c2-1.27,4.54-2.31,6.16,0.29s-0.41,4.4-2.44,5.66l-0.6,0.38 M126.17,69.85
		c3-2.72,3.06-6.71,1-10c-3.18-5.1-8.16-5.11-12.87-2.17l-9.28,5.79l14.91,23.87l6.2-3.87l-5.73-9.18h0.06l11.59,5.52l7.73-4.83
		L126.17,69.85z"/>
	<polyline class="st0" points="159.13,43.05 164.78,40.89 162.56,35.11 144.44,42.06 146.66,47.85 152.31,45.68 160.17,66.16 
		167,63.55 	"/>
	<polyline class="st0" points="195.61,38.63 194.29,27.85 187.03,28.74 190.46,56.67 197.72,55.78 196.31,44.33 206.8,43.05 
		208.2,54.49 215.47,53.6 212.03,25.67 204.77,26.57 206.09,37.34 	"/>
	<path class="st0" d="M252.42,45.48l-6-0.75l4.09-8.52h0.08 M253.74,51.26l1.22,5.08l7.74,1l-7.09-29.22l-7.93-1l-14.21,26.6
		l7.7,0.94l2.53-4.61L253.74,51.26z"/>
	<path class="st0" d="M324.76,58.46l0.44,0.28c1.66,1.09,3.49,2.45,2.09,4.61c-1.31,2-3.18,1.19-4.81,0.12l-0.68-0.44 M315.8,79.52
		c4.32,2.8,9.61,3.92,12.82-1c2.13-3.29,2.18-6.5-0.92-9.14v-0.06c2.54,0.26,4.35-1,5.73-3.14c2.92-4.51,1.17-8-3-10.69l-8.76-5.69
		l-15.33,23.6L315.8,79.52z M318.8,67.6l0.62,0.41c2,1.3,5.22,3,3.38,5.84c-1.69,2.6-4.69,0.51-6.52-0.67l-0.77-0.51L318.8,67.6z"/>
	<path class="st0" d="M371.99,90.88c-0.93-2.93-2.55-5.6-4.73-7.77c-4.05-3.92-9.57-4.06-13.54,0c-3.78,3.93-2.44,6.88,0,11
		c0.81,1.41,2.39,3.91,1,5.39s-3.29,0.77-4.52-0.43c-1.66-1.8-2.61-4.15-2.65-6.6l-6.35,2.06c0.65,3.49,2.36,6.69,4.88,9.18
		c2.02,2.07,4.71,3.36,7.59,3.64c2.93,0.19,5.41-1.41,7.36-3.43c3.16-3.27,2.36-6.79,0.34-10.34l-0.95-1.71
		c-0.63-1.17-1.61-3-0.47-4.18s2.92-0.45,3.89,0.48c1.26,1.27,2.03,2.93,2.19,4.71"/>
	<path class="st0" d="M400.93,127.9c-0.38-2.27-1.21-4.44-2.44-6.38c-2.23-3.35-5.68-5.69-9.62-6.51c-3.77-0.74-7.69,0.03-10.9,2.14
		c-3.46,2.09-5.82,5.59-6.46,9.58c-0.66,3.86,0.15,7.82,2.28,11.11c1.27,1.81,2.83,3.4,4.61,4.7l7.36-4.77
		c-2.42-0.3-4.59-1.64-5.95-3.66c-2.34-3.29-1.57-7.85,1.71-10.19c0.18-0.13,0.37-0.25,0.57-0.37c3.65-2.37,8.18-1.71,10.62,2
		c1.39,2.09,1.73,4.71,0.9,7.08"/>
	<path class="st0" d="M124,380.08l0.44,0.28c1.65,1.08,3.49,2.45,2.08,4.6s-3.17,1.2-4.8,0.14l-0.69-0.45 M115.03,401.14
		c4.32,2.81,9.6,3.92,12.81-1c2.14-3.28,2.18-6.5-0.91-9.14v-0.06c2.53,0.27,4.34-1,5.72-3.13c2.93-4.51,1.17-8-3-10.69l-8.78-5.72
		l-15.28,23.61L115.03,401.14z M118.03,389.22l0.63,0.4c2,1.31,5.22,3,3.37,5.85c-1.68,2.6-4.69,0.51-6.51-0.68l-0.78-0.5
		L118.03,389.22z"/>
	<polyline class="st0" points="171.04,404.66 173.05,398.8 157.91,393.59 148.75,420.19 163.89,425.41 165.91,419.55 157.68,416.72 
		159.27,412.13 167.06,414.82 169.08,408.96 161.28,406.28 162.81,401.83 	"/>
	<path class="st0" d="M202.14,411.55l0.7,0.08c2.37,0.3,5,1.07,4.61,4.11s-3.09,3.16-5.47,2.86l-0.7-0.09 M207.98,423.36
		c4.05-0.22,6.61-3.28,7.08-7.14c0.73-6-3.13-9.11-8.65-9.79l-10.85-1.33l-3.43,27.91l7.26,0.89l1.32-10.74h0.07l5.54,11.58l9,1.11
		L207.98,423.36z"/>
	<polyline class="st0" points="246.07,406.58 238.82,407.47 242.25,435.4 258.21,433.44 257.46,427.29 248.75,428.36 	"/>
	<polyline class="st0" points="283.49,398.02 276.46,400.04 284.22,427.08 291.25,425.06 	"/>
	<polyline class="st0" points="319.47,414.13 325.8,410.48 317.18,395.54 317.25,395.5 337.47,403.74 343.81,400.08 329.74,375.71 
		323.4,379.37 332,394.27 331.94,394.31 311.73,386.1 305.4,389.76 	"/>
	<path class="st0" d="M412.21,220.93h0.71c2.39,0,5.08,0.46,5.06,3.53s-2.7,3.5-5.09,3.48h-0.7 M419.41,231.94
		c4-0.69,6.17-4,6.19-7.92c0-6-4.19-8.68-9.74-8.7h-10.94l-0.11,28.14h7.31l0.05-10.82h0.07l6.86,10.84h9.11L419.41,231.94z"/>
	<path class="st0" d="M45.52,214.74v20.21c0,1.61-0.34,3.21-1,4.68c-0.62,1.41-1.5,2.7-2.59,3.79c-1.08,1.09-2.35,1.97-3.76,2.59
		c-1.46,0.62-3.04,0.93-4.63,0.92h-0.13c-1.59-0.02-3.16-0.36-4.61-1c-1.45-0.62-2.77-1.52-3.88-2.64c-1.1-1.12-1.97-2.45-2.56-3.9
		c-0.59-1.47-0.88-3.05-0.84-4.64l7.28,0.09c-0.02,1.25,0.46,2.46,1.33,3.36c0.88,0.92,2.09,1.43,3.36,1.42
		c0.62,0.01,1.23-0.11,1.81-0.34c0.57-0.23,1.08-0.57,1.51-1c0.42-0.44,0.76-0.95,1-1.51c0.25-0.58,0.38-1.21,0.38-1.85v-20.18
		H45.52z"/>
</g>
<g id="Capa_4" class="st4">
	<polygon class="st5" points="59.25,-36.85 92.45,-36.85 102.71,-68.39 113.29,-36.85 146.67,-36.85 119.58,-17.07 129.87,14.82 
		102.96,-4.86 75.65,14.82 86,-17.18 59,-36.81 	"/>
	<polygon class="st6" points="75.65,14.82 102.83,-22.58 86,-17.18 	"/>
	<polygon class="st6" points="102.71,-68.39 102.83,-22.58 92.45,-36.85 	"/>
	<polygon class="st6" points="129.87,14.82 119.58,-17.07 102.83,-22.58 	"/>
	<polygon class="st6" points="113.29,-36.85 102.83,-22.58 146.67,-36.85 	"/>
	<polygon class="st7" points="59,-36.81 102.83,-22.58 86,-17.18 	"/>
	<polygon class="st7" points="102.83,-22.58 129.87,14.82 102.96,-4.86 	"/>
</g>
<g id="Capa_3" class="st4">
	<polygon class="st5" points="303.98,-36.87 337.18,-36.87 347.44,-68.41 358.02,-36.87 391.4,-36.87 364.31,-17.09 374.6,14.81 
		347.69,-4.88 320.38,14.81 330.73,-17.2 303.73,-36.83 	"/>
	<polygon class="st6" points="320.38,14.81 347.57,-22.6 330.73,-17.2 	"/>
	<polygon class="st6" points="347.44,-68.41 347.57,-22.6 337.18,-36.87 	"/>
	<polygon class="st6" points="374.6,14.81 364.31,-17.09 347.57,-22.6 	"/>
	<polygon class="st6" points="358.02,-36.87 347.57,-22.6 391.4,-36.87 	"/>
	<polygon class="st7" points="303.73,-36.83 347.57,-22.6 330.73,-17.2 	"/>
	<polygon class="st7" points="347.57,-22.6 374.6,14.81 347.69,-4.88 	"/>
</g>
<g id="Capa_3_copia" class="st4">
	<polygon class="st5" points="180.9,-69.53 214.1,-69.53 224.36,-101.07 234.94,-69.53 268.33,-69.53 241.23,-49.75 251.53,-17.85 
		224.62,-37.54 197.3,-17.85 207.65,-49.86 180.66,-69.49 	"/>
	<polygon class="st6" points="197.3,-17.85 224.49,-55.26 207.65,-49.86 	"/>
	<polygon class="st6" points="224.36,-101.07 224.49,-55.26 214.1,-69.53 	"/>
	<polygon class="st6" points="251.53,-17.85 241.23,-49.75 224.49,-55.26 	"/>
	<polygon class="st6" points="234.94,-69.53 224.49,-55.26 268.33,-69.53 	"/>
	<polygon class="st7" points="180.66,-69.49 224.49,-55.26 207.65,-49.86 	"/>
	<polygon class="st7" points="224.49,-55.26 251.53,-17.85 224.62,-37.54 	"/>
</g>
</svg>
